<svg xmlns="http://www.w3.org/2000/svg" width="1365.333" height="1365.333" version="1.0" viewBox="0 0 1024 1024"><path d="M393.5 176c-.3 1.1-1.5 2.5-2.5 3-1.6.9-1.8.8-1.4-.5.4-.8-2.2 1.5-5.8 5.2-9.3 10-11.1 12.7-3.9 5.8l6.4-6-4.7 6.1c-5.9 7.8-14.7 14.8-32.6 26.4-5.9 3.9-8.6 6-7.5 6 .4 0 1.6-.7 2.5-1.5 1-.9 3-1.8 4.6-2 1.6-.2 5.6-1.1 8.9-1.9 7.6-1.9 24.4-2 31-.2 2.8.8 4.3 1.5 3.5 1.5-.8.1-4.5 1.1-8.2 2.2-5.7 1.8-6.5 2.4-5.2 3.3 1.4 1 .9 1.4-2.8 2.6-2.3.7-4.8 1.7-5.4 2.2-.6.4-1.4.5-1.7.1-.4-.3-.7-.1-.7.5 0 1.7-8 3.9-8.9 2.4-1-1.6-15.5.9-20.1 3.4-7.2 4.1-8.1 4.5-9.8 4.1-1.4-.3-1.2-.6.9-1.6 1.4-.7 3-2.1 3.6-3.1 1-1.6.9-1.7-1-1.2-2.1.5-2 .3.7-3.4 1.6-2.1 4.2-5.2 5.8-6.8 1.5-1.5 2.8-3.3 2.8-3.8s1.6-2.9 3.5-5.2c1.9-2.4 3.5-4.9 3.5-5.6 0-.7.9-2.8 2.1-4.6 1.3-2.2 1.6-3.3.7-3-.7.2-2.8.7-4.6 1-3.3.6-3.3.5-2.7-2.4.7-3.3-1-4.2-2-1.1-.3 1.1-4.6 6-9.4 10.9-4.9 4.8-9.2 9.9-9.6 11.2-1.3 3.9-4.7 8-8.7 10.3-2.1 1.1-3.8 2.4-3.8 2.7 0 .3-.8 1.5-1.7 2.6-1 1-5.6 6.3-10.2 11.7-4.6 5.3-8.7 9.7-9.1 9.7-.4 0-.2-1.5.4-3.4.6-1.9 1.4-3.2 1.8-3 .4.3.5-.2.2-1-.9-2.4 4.1-18.6 5.8-18.6.4 0 .6-.8.6-1.8 0-.9.3-2.5.7-3.5.5-1.3.3-1.6-.8-1.1-.9.3-1.8 1.3-2 2.2-.3 1-.5.5-.6-1.1-.2-4-2.1-3.3-2.1.8 0 1.9-.5 3.5-1.1 3.5-.7 0-.8-1.1-.4-3 1-4.3-.7-3.7-3.3 1.2-2.7 5.1-4.3 7.6-10.2 15.4-2.5 3.3-6.1 9.1-8 12.8-2.2 4.3-3.6 6.2-3.8 5.1-.4-1.9-4 5.1-7.4 14.5-3.4 9.3-5.1 13-6.1 13-.6 0-.5-.5.1-1.3.5-.6 1.2-6.4 1.6-12.7.3-6.3.9-12.5 1.2-13.8.4-1.2.2-2.2-.2-2.2-.5 0-1.4 1-1.9 2.2-.6 1.3-1.5 2.3-2.2 2.3-1.9 0-2.4 1-3.4 7.9-.5 3.7-1.8 9.2-3 12.4-1.2 3.1-3.4 10.6-4.9 16.7-3.2 12.4-3.6 12.7-1.6 1 1.1-6.7 1.4-13.3.6-15.5-.3-1-3 8.8-5.1 18.5-1.1 5.5-2.9 11.8-3.9 14-1 2.2-2.8 6.4-4.1 9.3-1.2 2.9-2.3 5.1-2.5 5-.1-.2.3-2.8 1.1-5.9.7-3.1 1-6.9.8-8.3-.5-2.5-.6-2.5-1.9-.9-1.2 1.6-1.4 1.1-1.5-3.7-.1-5-1.6-12.4-1.8-9.1-.1 1.1-.6 1-2.5-.3l-2.5-1.6-1.6 5.8c-1 3.1-2.3 8.5-3 11.9-.7 3.4-1.8 7.8-2.5 9.8-.7 2-1 4.9-.8 6.5.2 1.6.1 2.7-.4 2.4-.4-.3-.8.1-.8.8-.4 12.2-1.5 18.5-4.8 28.5-2 6.2-3.9 11.3-4.2 11.3-1.4 0-2.9-15.2-2.4-24.1.4-5.7.2-10.4-.4-11.5-.8-1.4-1.1-1-1.7 2.4-.4 2.3-1.1 4.4-1.6 4.8-.5.3-.9 1.4-.9 2.5 0 2.3-.8 2.4-3.1.3-1.7-1.5-1.9-1.3-3.4 4-.9 3.1-1.6 7.1-1.6 8.9.2 8.1 0 13.7-.5 20.2-.4 3.8-.7 9.2-.8 12-.2 2.7-.9 9.2-1.6 14.4-1.1 7.8-1.5 9.1-2.5 7.7-1.1-1.4-1.3-.3-1.2 6.1.1 4.3-.5 10.7-1.3 14.2l-1.5 6.3-4.3-12.9c-5.3-15.7-6.2-22.5-4.5-32.4.8-4.1 1.5-8.6 1.8-10.1.2-1.5.8-3.5 1.3-4.5s1.2-3.4 1.5-5.3c.5-2.6-.6-1.2-3.9 5.4-6.3 12.4-9.5 25.2-9.7 39.1l-.2 11 4.3 7.5c6.7 11.8 16.3 31.7 16.6 34.5.6 4.6-1.4 2.6-5-5.3-7.6-16.5-13.3-27.1-16.6-30.8-1.1-1.2-2.3-3.4-2.8-5l-.8-2.9-.1 3c-.1 1.7-.6 3.6-1.1 4.1-1.4 1.4-2.5 17-1.6 21.8.4 2.1 4.6 9.4 10.1 17.7 5.2 7.7 9.5 14.6 9.5 15.3 0 .7 1.1 2.6 2.5 4.2 6.9 8 11.8 22.8 8.9 26.9-1.3 1.9-1.4 1.8-.8-1.2.8-4.2-.8-8.3-6.3-15.6-2.4-3.3-4.3-6.4-4.3-7 0-.7-.5-.4-1.1.5-.7 1.2-.6 2.5.2 4 .7 1.3 1.2 2.5 1.2 2.8 0 .3.3 1.5.8 2.8.5 1.3.9 2.8.9 3.3 0 .6 1.6 3.8 3.5 7.1 2 3.3 3.3 6.3 3 6.7-.4.3-1.1-.2-1.6-1.2-.6-.9-1.4-1.7-2-1.7-1.2 0-4.2-3-9.4-9.5-2.1-2.8-4.2-5.2-4.6-5.5-1.6-1.1-8-15.3-10.8-23.6-1.6-4.9-3.3-11.8-3.7-15.3-1-9.5-2.4-5.4-3.1 9.2-1.1 24.6 4.8 40.5 19.8 53.1 17.4 14.9 24 22.1 25.3 28 .7 2.8.4 2.7-4.1-2.1-9.1-9.5-18.3-15.4-18.3-11.6 0 .8.4 1.2.9.9.5-.3.8 0 .7.7 0 .7 3.6 5.3 8.2 10.1 5.7 6.2 8.2 8.3 8.2 7 0-1.5.7-1.2 3.5 1.8 3.4 3.6 4.5 6.8 2.5 6.8-.5 0-1.7-1.4-2.5-3.1-.9-1.7-1.9-2.8-2.3-2.5-.3.4 0 1.2.6 1.8.7.7 1.2 1.5 1.2 2 0 .4-1.9-1.3-4.1-3.7-2.3-2.5-4.5-4.5-5-4.5-1.1 0 3.9 9.2 5.9 10.7.8.7 1.3 1.6.9 1.9-.3.3-2.6-1.4-5-3.8-2.5-2.3-6.2-5.8-8.2-7.7-7.1-6.4-21.5-32.4-21.7-39-.2-4.8-2.3-3.1-2.5 2-.6 10.9 2.5 26.4 8 40.3 4.9 12.3 9.3 19.1 13.4 20.7 2.1.8 3.2 1.8 2.8 2.6-.2.8.1 1.3.8 1.2 2.5-.3 3.8.1 3.2 1.1-.3.5-.3 1.5.1 2.1.4.8.9.7 1.5-.2.6-1 1.3-1.1 3.1-.2 1.3.6 6.1 2.9 10.8 5.2 6.7 3.1 10.6 5.9 18.2 13 8.4 8 19.7 21.6 18.6 22.6-.2.2-2.8-2.6-5.8-6.2-3-3.5-7.5-8.2-10-10.2-5.3-4.5-15.4-10.4-16.3-9.5-.3.4-1.4-.1-2.3-1-.9-.9-1.9-1.4-2.3-1.1-.3.4.2 1.2 1.1 1.9 1 .7 1.4 1.6 1 2-.4.4-.2.6.3.5 1.2-.4 4.9 1.6 7.9 4.2 1.2 1.1 5.1 3.9 8.6 6.2 6.9 4.5 8.1 6.1 5.4 7.1-4.4 1.7-28.6-14.8-41.8-28.4-5.4-5.6-10-9.9-10.3-9.6-1.5 1.4 7.7 20.7 15.1 31.9 2.1 3.1 6.4 7.9 9.7 10.8 6.3 5.4 7.1 6.9 3.9 6.9-3.1 0-2.5 2.7 2.9 13.4 8.6 16.8 16.3 26.9 36.4 47.1 6.4 6.5 10.9 12.1 12.9 16 2.2 4.2 6.6 9.5 14.8 17.5 9.4 9.4 12.9 12.2 19 15.1 7.3 3.5 16.9 7.1 22.1 8.3 1.8.4 3.1 1.9 4.8 5.5 2.5 5.7 14.7 18.3 22.8 23.7 5.1 3.4 8.6 6.8 4.7 4.6-1-.6-2.7-.7-4-.2-1.2.5-2.5.6-2.8.3-.3-.4-.6-.2-.6.4 0 .6-2.1 1.6-4.7 2.3-13.4 3.4-16.8 4.4-17.4 5.4-.4.5-1.2.5-1.9.1s-2.3.4-4 2c-1.5 1.5-3.1 2.7-3.4 2.6-.3-.1-.7-.1-.8 0-.2 0-1.4.3-2.7.5-1.4.2-3.2 1.1-4.1 1.9-.9.8-2.6 1.5-3.8 1.5-1.5 0-2.2.6-2.2 1.9 0 1-.6 1.9-1.2 1.8-3.8-.1-4.6.4-4.1 2.3.4 1.5 0 2-1.3 2-4.3 0 5.4 5.9 14.6 8.9 17.2 5.6 31.3 7.9 65.5 10.6 56.7 4.4 240.2 3.8 301.5-1 25.3-2 41.6-3.8 48.5-5.5 4.4-1 9.5-2.2 11.3-2.5 1.7-.4 3.2-1.1 3.2-1.6s.9-.9 2-.9 2-.4 2-.9 1.3-1.4 2.9-2.1c1.6-.6 3.2-1.9 3.6-2.8.5-1.4.7-1.5 1.6-.2.8 1.2 1 1 .6-.8-.3-1.4.1-2.6 1.1-3.2 1-.5 1.4-1 1-1-.5 0 .1-.9 1.2-2 1.2-1.2 2.5-1.8 3.1-1.4.6.3.5-.3-.2-1.4-1.1-1.8-4-3.2-7.4-3.7-.5 0-.9-.6-.7-1.3.1-.7-.7-1.2-1.8-1.2-1.2 0-3.5-.7-5.1-1.6-1.7-.8-4.5-1.6-6.3-1.8-1.8-.2-3.8-.6-4.4-1-.6-.4-6-.9-11.9-1.2-5.9-.2-12.4-.7-14.3-1.1-1.9-.3-4.6-.7-6-.8-8.8-.9-13-1.9-13-3.1 0-.8-.4-1.4-1-1.4-.5 0-1 .4-1 1 0 .5-.8 1-1.7 1-1.1 0-.3-1 2.2-2.7 11.1-7.3 24.8-21.8 26-27.4.5-2.3 1.4-3.1 4.8-3.9 15.8-4.1 31.5-12.6 42.8-23.2 6.3-5.9 13.6-16.1 15.1-21.1 1.4-4.5 3.7-7.1 21-23 13.1-11.9 21-22.2 28.3-36.8 5.2-10.5 6.8-15.9 4.5-15.9-1.8 0-1.1-3.8.9-4.5 2.5-.8 15.7-17 20.8-25.7 5.1-8.5 9.9-21.6 11.9-31.6 1.9-10.1 1.8-13.5-.6-15.7-2.5-2.3-2.6-5.5-.2-5.5 3.3 0 12.6-21.6 15.7-36.7 2.7-13.1 2.4-29.3-.6-29.3-.7 0-.9.9-.6 2.1.4 1.5-1 3.7-5.7 8.7-3.4 3.7-8.8 10.1-12 14.2-3.1 4.1-10 12.2-15.2 18-5.2 5.8-10.4 12.2-11.5 14.2-1 2.1-2.1 3.8-2.4 3.8-.8 0 1.8-6.5 3.1-7.6.8-.6 2.5-4.2 4-8 1.4-3.8 4-8.5 5.8-10.4 1.8-1.9 5.2-6 7.6-9 6.8-8.6 15.1-16.9 19.3-19.2 2-1.2 3.7-2.6 3.7-3 0-.5.9-2.1 2-3.6 5.9-8 6.5-36.5 1-50.7l-1.2-3-1.5 2.9c-.9 1.7-1.7 5.2-2 8-.7 9.1-6.3 23.3-12.7 32.1-5 6.9-8.8 13.9-7.7 14.3.9.3.9.7 0 1.8-.6.8-1.5 1.1-2 .8-.5-.3-.9.1-.9.8-.1 2-3.4 5.5-5.2 5.5-1.9 0-2.1.7 3.7-12.2 1.4-3.3 3-6.8 3.6-7.7.5-1 .9-2.2.9-2.7s2.3-4.6 5-9c2.8-4.4 5-8.7 5-9.6 0-.8.3-1.4.8-1.3 1.4.3 4.2-1.4 3.7-2.2-.3-.5 0-1.2.6-1.6 1.2-.7.9 2.3-.6 7.1-.7 2-.7 2 .6 0 1.2-1.9 3.9-11.6 3.9-14.3 0-2.9-2.8-.8-7.3 5.4-6 8.3-7.5 7.7-1.8-.7 2.3-3.4 4.1-6.3 3.9-6.4-.6-.6-10.1 12.2-14.7 19.6-2.4 4.1-5.3 9.4-6.2 11.9-1.2 3-1.8 3.8-1.9 2.3 0-2.7 12.1-24.5 17-30.7 1.9-2.4 5.1-5.5 7-7 4.2-3.1 7-10.3 4.8-12.1-.9-.7-1.4-4.5-1.5-13.1-.4-21-6.1-38.6-15.1-46.2-4.2-3.5-5.3-5.1-7.3-11.4-3.5-11-13-28.2-17.5-31.9-1-.8-.4.6 1.4 3 3.5 4.9 4.4 8.1 1.2 4.2-2.6-3.1-2.5-1.7.1 2.5 1.1 1.9 1.7 3.4 1.2 3.4-1.3 0-4.3-6.7-3.7-8.3.2-.7-.4-2.1-1.5-3.1s-1.8-2.3-1.5-2.8c.3-.4 0-.7-.7-.6-.8.2-2.1-2.7-3.6-7.7-1.6-5.7-3.9-10.4-8-16.3-6.8-10-8.3-11.3-4.8-4.1 1.4 3 2 4.6 1.2 3.6-.8-.9-1.6-1.7-1.9-1.7-.3 0 .8 4.6 2.3 10.2 7.1 25.4 6.6 22.8 4.5 24.3-1.4 1.1-1.7 2.4-1.5 6.4.2 2.8.1 5.1-.3 5.1s-.8 1-1 2.2c-.4 2.3-.7 1.9-6.3-10.7-2.2-5.1-4.3-15.5-5.1-25-.8-10.9-2.8-21.5-4.9-25.5-.9-1.7-1.7-3-1.8-3-.2 0-.2 1.5-.1 3.2.1 2.2 0 2.4-.3.8-.6-3.7-7.7-17.9-11.3-22.8-2.1-2.8-3.6-4-4.4-3.4-1.9 1.4-3.6.8-5.7-1.8l-2-2.5 1.5 3.5c.8 1.9 3.5 8 6 13.5 5 10.9 9.9 31.5 7.6 31.5-.6 0-1-.7-1-1.7 0-.9-.3-1.4-.6-1-.3.3-1.7.2-3-.3-2.8-1.1-2.8-1-.9 3.7 2.3 5.5 1.8 5.3-2.1-.7-5.1-8.1-11.5-21.6-13.3-28.5-1.7-6.7-5.1-24.8-5.1-27.7 0-1.5-.5-3-1.1-3.4-.6-.3-.9-1.4-.6-2.4.3-1.2-.2-2-1.3-2.3-1-.3-2.9-2.2-4.3-4.3-1.4-2.2-4.4-5.7-6.8-7.9l-4.3-4 4.1 4.6c5.4 6.1 6.5 8.4 6.8 13.9.1 2.6.6 5.3 1 6 .5.9.4 1.1-.3.6-1.8-1.1-4.4-7.4-3.6-8.7.4-.8.3-.9-.5-.5-.7.5-1.3-.4-1.8-2.4-.3-2-.9-2.7-1.3-2-.5.8-1.2-.2-2-2.6-.7-2.2-1.7-4.4-2.2-4.9-.6-.6-.7-.4-.3.6.4 1 0 1.6-.8 1.6s-1.4-.7-1.3-1.6c0-.9-.5-1.5-1.3-1.3-.7.2-2.3-.5-3.4-1.5-2.2-1.9-.9.2 5.8 9.8 1.7 2.4 3.7 6 4.4 7.9.8 1.9 2.1 4.2 2.8 5.2.8.9 1.5 2.2 1.7 3 .1.7.5 1.9.9 2.6.5.7.5 2.1.2 3.2-.4 1.4-.2 2 .6 1.8.7-.2 1.5.5 1.7 1.6.3 1.3 0 1.6-1 1-.8-.5-.7-.1.3 1.2 1 1.2 1.4 2.8.9 4.4-.6 2.4-.8 2.2-4.8-3.5-11.9-17.1-16.6-24.9-21.8-36.4-3.1-6.9-6.3-13.5-7-14.6-.8-1.1-1.4-2.7-1.4-3.7s-.7-1.8-1.6-1.8c-1.3 0-1.5.6-.9 2.7.5 1.6.8 3.6.9 4.5 0 .9.4 1.4.9 1.1.5-.3.6.4.2 1.7-.5 1.5-.4 2 .4 1.6.7-.5 1.1.3 1.1 2.1 0 2.2.2 2.5 1 1.3.7-1.1 1-.4 1 2.5 0 2.3.4 4.5.9 5 1.3 1.5 2.4 6.8 1.2 6.1-.5-.3-1.1 0-1.3.6-.3.7-.5-.1-.5-1.7 0-3.4-4.5-13.5-5.1-11.6-.3 1 1.5 6 3.6 9.5.3.5.1.6-.4.3s-2-2.6-3.3-5.1c-1.2-2.5-3.1-5.1-4.2-5.6-2.3-1.3-2.5-.3-.2 2.2 2.1 2.4.9 3.6-1.5 1.5-2.3-2.1-3.6-2.2-2.8-.2 1 2.6-1.1 1.6-4.3-2-1.7-1.9-3.4-3.5-3.8-3.5-1.3-.1-4.5-3.2-10.8-10.5-3.3-3.8-6.7-7.7-7.7-8.6-.9-1-2.5-3.7-3.6-6.2-1.9-4.2-9.8-13.4-10.8-12.4-.2.2.2 1.7 1 3.3 1.2 2.1 1.2 3 .4 3.6-.9.5-.8 1.6.5 4.2.9 2 1.3 3.6.8 3.6-.6 0-1.2-.9-1.6-1.9-.3-1-1.4-2.1-2.4-2.4-2.8-.7-1.5 3.1 2.3 6.9 3.7 3.8 7.6 8.4 7.1 8.4-.9 0-7.7-5-12-8.7-4.5-4-5.6-6.5-3.3-7.9.6-.4.8-.3.5.2-.3.6.3 1.5 1.3 2.2 1.7 1 1.8.9 1.3-.6-.4-.9-1.7-2.8-3-4.2-1.9-1.8-2.6-2.1-3.2-1.1-.7 1.1-1.1 1-1.8-.4-.6-1-1.6-1.6-2.4-1.3-1 .3-.4 1.4 2 3.6 1.9 1.7 3.2 3.5 2.8 3.8-.4.4-.7.3-.7-.2 0-.6-1.7-2-3.7-3.2-5.3-2.9-16.4-14.5-18.8-19.5-2.8-5.8-4.5-5.9-4.5-.4 0 2.7-.5 4.7-1.2 5-1 .4-1 .6 0 .6.6.1 1.2.8 1.2 1.8 0 .9 1.2 3.1 2.6 5 2.8 3.6 2.8 3.9.4 4.4-1.6.3-22.7-7.6-24.7-9.3-1-.8-1.3-.7-1.3.3 0 .9-.3 1-.8.3-.7-1-4.4-2.1-14.9-4.4-5.4-1.2-9.4-1.1-10.4.4-.4.4-1.4-1.1-2.2-3.5-1.4-4-1.5-4.1-1.6-1.5-.2 7.2 13.3 23.3 25 29.9 3.6 2 7.2 4.3 7.9 5.2 1.1 1.3.8 1.5-1.6 1.5-1.6 0-4.5-.4-6.3-1-5.2-1.5-2.6.3 7.9 5.5 29.6 14.6 38.6 19.4 43.7 23.3 3.2 2.4 11.1 7.5 17.5 11.3 6.5 3.9 12.1 7.6 12.5 8.2.9 1.3 5.2 5 9.7 8.2 1.6 1.1 4.3 3.4 6.1 5.2 1.8 1.7 3.5 3 3.7 2.7.3-.2 3.3 2.3 6.9 5.6 3.5 3.3 6.7 5.9 7.2 6 .4 0 .7.4.7.9s1.5 2.4 3.3 4.3c10.5 11 19.4 21.1 21.9 25 1 1.4 2.8 3.7 4 5.1 2.1 2.3 13.8 24.6 17.1 32.7.8 1.9 3.6 8.7 6.2 15 6.7 16.2 10.5 27.4 10.8 31.7.1 1.3.4 2.3.8 2.3.8 0 3.2 19.7 2.6 21.5-.4.8-.2 1.7.3 2 .6.4 1 3 1 6s.5 5.7 1 6c.6.4 1 1.8.9 3.3 0 1.5.6 6.4 1.3 10.9.9 5.3 1.1 8.8.5 9.9-.5.9-1.1 4-1.2 6.8-.5 8.6-1.6 19-2.2 19.9-.3.5-.7 4.1-1 8-.5 8.6-2.6 19.4-5.5 27.9-1.1 3.5-2 7.1-2 8 0 1-.4 1.8-.9 1.8-.6 0-.7.5-.4 1 .4.6.1 1.7-.5 2.5-1 1.2-2.1 4.5-3.3 10.2-.2.6-1 2.6-1.9 4.5-2.5 5.1-5.8 12.9-6.3 15-.2.5-.3.9-.5 1-.1.2-.3 1.2-.5 2.2-.2 1-.8 2.2-1.3 2.5-1.4 1-5.2 9.6-5.2 11.9 0 1.1-.5 2.4-1 2.7-.6.3-1.9 2.7-3.1 5.1-1.9 4.2-13.7 21.7-17.3 25.6-.9 1-1.6 2.5-1.6 3.3 0 1.5-2.7 4.8-12.7 15.2-3.5 3.6-6.3 6.9-6.3 7.5 0 .5-.4.6-1 .3-.5-.3-1-.1-1 .4 0 1.2-10.2 11.9-10.5 11.1-.1-.3-1.4 1-2.9 2.7-1.5 1.8-3.2 3.3-3.7 3.3-.4 0-2.1 1.2-3.7 2.7-3.9 3.7-6.9 6.2-11.7 9.7-2.2 1.6-4.9 3.8-6 4.9-1.1 1-3.6 3.1-5.5 4.6-1.9 1.4-4.1 3.2-4.8 3.8-.7.7-2 1.3-2.8 1.3-.8 0-1.4.4-1.4.8 0 .5-1.8 1.7-4 2.8-2.2 1-4 2.2-4 2.6 0 .5-.6.8-1.4.8-.8 0-2.1.6-2.8 1.3-.7.7-5.7 3.4-11 6-5.4 2.6-10 5.2-10.3 5.7-.3.6-1.4 1-2.4 1-.9 0-2.2.5-2.8 1.1-.7.7-3.6 2.1-6.5 3.2-9.1 3.3-19 6.6-19.7 6.5-.3-.1-1.3.1-2.1.4-.8.3-3.7 1-6.5 1.6-2.7.6-8.8 2-13.5 3.1-4.7 1.2-10.3 2.3-12.5 2.6-2.2.4-5.3 1-7 1.5-4.5 1.4-20.3 3.2-26.5 3-3-.1-6.2-.1-7-.1-10 .1-13.9.1-22.5-.3-5.5-.3-14.3-1.2-19.5-2.1-5.2-1-10.6-1.8-12-2-1.4-.1-3.2-.5-4-.8-.8-.2-3.5-1-6-1.8-2.5-.7-4.9-1.5-5.5-1.8-.5-.3-1.6-.7-2.2-.8-.7-.2-1.9-.5-2.5-.6-.7-.2-3.1-.7-5.3-1.1-2.2-.4-5.1-1.1-6.5-1.6-1.4-.5-5.2-1.6-8.5-2.5-3.3-.9-7.2-2.3-8.7-3.1-1.6-.9-2.8-1.3-2.8-1 0 .7-26-12.6-29.7-15.1-1.5-1.1-5.8-3.4-9.5-5.2-3.8-1.8-6.8-3.7-6.8-4.2 0-.6-.4-.8-.9-.5-.5.3-1.4-.1-2.1-.9-.7-.8-1.8-1.5-2.4-1.5-1.1 0-10-6-13.6-9.2-.9-.7-2.9-2.2-4.5-3.2-1.7-1.1-3.7-2.8-4.6-3.8-.9-1-2-1.8-2.5-1.8s-2.5-1.9-4.4-4.2c-1.9-2.3-4.2-4.8-5-5.5-5.3-4.8-15.2-14.3-14.8-14.3.3 0-2-2.6-5.1-5.8-15.7-16.5-18-18.8-19.2-19.8-.8-.6-2.1-2.1-2.9-3.4-.8-1.2-2.5-3.4-3.7-4.8-2.3-2.7-2.7-3.6-2.4-6 .1-.6-.3-1.2-.8-1.2-.6 0-2.2-2.3-3.7-5.2-1.4-2.8-3.2-5.8-4-6.6-.8-.7-1.4-2-1.4-2.8 0-.8-.4-1.4-.9-1.4-.9 0-6.1-9.5-6.1-11.1 0-.6-.9-1.9-1.9-3-1.1-1.2-2.2-3.6-2.6-5.5-.3-1.9-1-3.4-1.6-3.4-.6 0-.8-.4-.4-.9.3-.5.1-1.2-.5-1.6-.5-.3-1-1.8-1-3.3 0-1.5-.6-3.6-1.3-4.7-.7-1.1-2.4-6.5-3.7-12-1.4-5.5-2.8-10.1-3.2-10.3-.3-.2-.4-1.7-.1-3.4.3-2 .1-2.8-.6-2.3-.7.4-1.1-.4-1.1-1.9 0-1.4-.6-5.3-1.4-8.8-.8-3.5-2-11.4-2.7-17.6-1-9.5-1.4-11-2.4-9.5-1.2 1.6-1.4 1.4-2-2.1-1.4-7.3 2.1-39 4.6-42.2.9-1.2 3.9-12.9 3.9-15.7 0-1.8-.2-1.7-3.4.2-4.8 3-6.5 2.6-3.4-.7 3.1-3.2 6.9-10.7 9.3-18.2 2.2-7 2.6-7.5 3.6-5.9.6 1 .9.8.9-.7 0-2.9 6.2-19.9 10.1-27.6 1.7-3.5 5.5-10.4 8.4-15.3 2.9-5 6.7-11.7 8.5-15 5.2-9.6 15.9-24.4 23-31.9 17.3-18.3 35.3-35.9 43-42 4.7-3.7 11-8.6 14-11 3-2.4 11.4-8.5 18.5-13.6 7.2-5.2 13.3-9.7 13.6-10.2.3-.4 7.9-4.6 17-9.2 15.3-7.9 16.4-8.6 16.1-11-.4-2.8 1.2-3.6 2.2-1.1.3.8 1.4 1.5 2.4 1.5 2.2 0 10.2-5 15.1-9.3 16.6-15 25.4-25.1 26.6-30.7.8-3.7-.2-5.7-1.8-3.7-1.5 1.8-8.3 4.1-9.7 3.2-.6-.4-1.6-.2-2.3.3-.7.5-2.5 1.2-4.2 1.6-1.6.4-4.3 1.4-6 2.1-1.6.7-7.4 2.5-12.8 4-11 3-23.9 9.1-29.5 13.8-2.1 1.8-1.1.3 2.4-3.3 11.3-12.1 18.8-26 14.1-26-.9 0-1.9.9-2.2 2zm30 18c-.3.5-1.1 1-1.8 1-.6 0-2.7 1.1-4.6 2.4-4.9 3.3-15.8 6.9-18.9 6.1-1.5-.4-3.1 0-4.1.8-1.7 1.4-19.7 6.7-22.8 6.7-1.5 0-1.3-.4.7-2 1.4-1.1 2.9-2 3.4-2s5.6-1.8 11.5-3.9c5.8-2.2 15.6-4.9 21.6-6.2 6.1-1.2 11.7-2.6 12.5-3 2.1-1.2 3.2-1.1 2.5.1zm163.5 1.9c0 .5-.9.7-2 .4-1.1-.3-2-.7-2-.9 0-.2.9-.4 2-.4s2 .4 2 .9zm-3 2c6.9 1.8 11.2 2.3 10.5 1.2-.3-.6-1.6-1.2-2.8-1.2-1.7-.1-1.8-.2-.5-.6 1-.2 4.4.5 7.6 1.6 3.2 1.2 6.7 2.1 7.9 2.1 1.1 0 4.9 1.8 8.4 4.1 8.3 5.3 9.6 6.6 3.6 3.8-3.7-1.8-5.2-2.1-6.5-1.2-1.4.8-2.6.8-4.8-.2-1.6-.6-5-1.5-7.5-1.9-4.5-.7-19.4-5.6-22.7-7.5-1.5-.9-1.3-1 .8-1.1 1.4 0 4.1.4 6 .9zm62.4 3.6c.3.8.1 1.5-.3 1.5-.5 0-1.1-.7-1.5-1.5-.3-.8-.1-1.5.3-1.5.5 0 1.1.7 1.5 1.5zm-18.9 14.1c4.2.9 8.3 1.3 9.1 1 .8-.3 1.4-.1 1.4.4 0 .6.6 1 1.4 1 4.7 0 20.1 9.2 25.6 15.4l3.5 3.9-3.5-.6c-11.8-1.9-32.1-6.7-33.7-7.9-.7-.5-1.4-.5-1.7.1-.4.6-3 .4-6.9-.5-8.7-2-9.4-2.3-7.8-3.3.8-.6-1.5-1.5-6.5-2.6-4.4-.9-8.3-2-8.8-2.2-1.9-1.2 5.7-3.9 14.9-5.3 2.8-.4 5.1-.8 5.1-.9.1 0 3.6.6 7.9 1.5zm-231 3.2c-.3.3-1.1 0-1.8-.7-.9-1-.8-1.1.6-.5 1 .3 1.5.9 1.2 1.2zm200.9 4.2c-1 .4-2.1.6-2.4.3-.8-.7 2.4-2.2 3.4-1.6.5.4.1 1-1 1.3zm79.7 11.2c2.7 2.2 4.8 4.3 4.6 4.5-1.1 1-10.7-6.1-10.7-7.9 0-1.4 1.1-.9 6.1 3.4zm-323.6-.2c-.3.5-1.8 1-3.3.9l-2.7-.1 2.5-.8c3.5-1.1 4.2-1.1 3.5 0zm-34.5 1.8c0 .5-2.5 3-5.6 5.6l-5.6 4.9 2.1-4.1c2.3-4.5 9.1-9.3 9.1-6.4zm25.7-.2c-.3.3-1.2.4-1.9.1-.8-.3-.5-.6.6-.6 1.1-.1 1.7.2 1.3.5zm2.8 2.4c-.4.6 2.5 1 7.9 1 8.6 0 11.4 1.2 5.4 2.4-1.8.3-6.2 1.9-9.6 3.6-3.5 1.6-7.2 3-8.2 3-1 0-2.3.7-3 1.5-.7.8-2.3 1.5-3.6 1.5-1.2 0-2.6.4-2.9 1-.3.5-2.5 1-4.8 1-2.3.1-6 .7-8.2 1.5-2.2.8-5.4 1.5-7.2 1.5-1.7 0-3.5.5-3.8 1-.4.7.2.9 1.7.6 1.2-.3 4.5-.8 7.2-1.1 2.7-.4 5.6-.9 6.5-1.2 1.1-.4 1.3-.3.6.4-1 1-10 2.6-21.2 3.8-5.2.6-11.7 2.4-11 3.1.2.3 3.6-.2 7.6-1.1 9.5-2 31.5-2.1 28.6-.2-1.1.7-4 2-6.5 2.8l-4.5 1.4 3.4.3 3.4.3-2.9 1.5c-1.5.8-4.8 1.9-7.3 2.5-2.5.5-8.4 2.5-13.1 4.3-4.7 1.9-11.9 4.6-15.9 6-4.1 1.5-7.7 3-8 3.4-.4.4-1.4.8-2.3 1-1 .1-3.7 1.1-6 2.2-2.3 1-4.4 1.7-4.7 1.5-.7-.7 7.2-11.6 12-16.5 2.5-2.6 6.1-5.6 7.9-6.5 3-1.5 6.8-4.2 19-13.3 3.9-2.9 22.5-10.2 26.2-10.2 1.8-.1 6.2-1.2 9.8-2.5 7.5-2.7 8.4-2.9 7.5-1.5zm331.2 4.1c4.6 2.1 8.7 3.9 9.3 3.9.6 0 4.6 3.6 9 8s7.5 8 6.9 8c-.6 0-4.1-3.2-7.8-7-3.6-3.9-7.1-7-7.6-7-.6.1-.1.9 1 1.8 1.1 1 2.9 2.8 3.9 4l1.9 2.2-4.8-2.1c-3.5-1.6-5.8-2-8.9-1.5-2.5.4-3.6.3-2.8-.3 1-.6.6-1.1-1.7-1.9-2.1-.7-3.3-.8-3.7 0-.4.6-2.7.7-6.2.3-4.1-.5-6-1.3-7.3-3-1.5-1.7-2.7-2.2-6-2-2.8.2-3.7 0-2.8-.7 1-.6.1-.8-2.6-.4-3.7.5-14.8-1.4-16.2-2.8-.7-.7 3.8-2.5 9.2-3.6 2.2-.5 9.6-.6 16.5-.4 12 .6 12.9.7 20.7 4.5zm24.1 9.1c.6 1.6 1 2.8.7 2.8-.5 0-3.5-5.6-3.5-6.7 0-1.2 1.5 1 2.8 3.9zm-1.8 2.3c0 .5-.5.3-1-.5s-1-2-1-2.5c0-.6.5-.3 1 .5s1 1.9 1 2.5zm-14.5.5c.8 1.3-.5 1.3-2.5 0-1.3-.8-1.3-1 .2-1 .9 0 2 .4 2.3 1zm-.5 6c18 3.8 28.5 8.6 38.3 17.3 2.6 2.3 3.7 5.7 1.8 5.7-1.6 0 0 4 2 5.1 1.1.5 1.9 1.4 1.9 2 0 .5-1 .3-2.2-.5-1.3-.7-3.6-1.7-5.1-2-1.9-.5-2.7-1.2-2.4-2.1.4-.9-1.2-2-4.8-3.5-5.6-2.3-7.2-2.5-6.7-.9.1.5-1.5.2-3.5-.7-2.1-.9-5.5-2.2-7.6-3-2-.7-6.6-2.9-10.1-4.9-3.4-1.9-6.5-3.2-6.8-2.9-.3.3-2.2-1.1-4.1-3.1-2.7-2.8-4.6-3.8-8.7-4.4-2.8-.5-5.9-1.6-6.8-2.5-1.5-1.5-1-1.6 6.8-1.6 4.7 0 12.8.9 18 2zm69.7 11.2c-.2.7.4 3.2 1.4 5.5 1 2.4 1.5 4.3 1.1 4.3-.5 0-1.4-1.6-2.1-3.5-.6-1.9-1.7-3.4-2.3-3.2-.7.1-1.4-.6-1.6-1.5-.2-1.3.1-1.6 1.2-1.2.9.3 1.6.1 1.6-.5s.3-1.1.6-1.1.4.6.1 1.2zm-57.9 15.9c3.4 1.7 9 3.5 12.4 4 17.5 2.5 31.6 10 36.5 19.4.9 1.6 2.3 3.5 3.2 4.2.9.6 1.3 1.4 1 1.7-.9.9-13.3-4.3-14.9-6.3-.8-1-4.6-2.8-8.5-4.1-3.8-1.2-9.5-3.9-12.5-6-3.1-2-9.7-6.3-14.8-9.4-8-5-10.2-6.6-8.9-6.6.2 0 3.1 1.4 6.5 3.1zm19.7-1.3c-.3.3-1.1 0-1.8-.7-.9-1-.8-1.1.6-.5 1 .3 1.5.9 1.2 1.2zm-421.7 2.4c-.3.7-7.3 4.8-15.6 9s-20.5 11-27.1 15.2c-6.7 4.1-12.1 7.2-12.1 6.9 0-1.3 6.6-12 8.4-13.7 5.3-4.8 16.5-12.6 20.1-14 9-3.6 27.1-5.9 26.3-3.4zm437.8 27.4c6.5 2 15.1 5.2 18.9 7.2 7.8 4 17.5 13 22.4 20.7 4.6 7.3 4.5 7.4-3.8 3-2.7-1.4-3.5-1.5-4.1-.4-1 1.5-.7 1.6-11.1-7.2-7.8-6.6-14.1-11.1-20.2-14.1-4.6-2.4-16.9-12.8-15-12.8.5 0 6.4 1.6 12.9 3.6zm56.4-.3c0 1.8-.2 1.9-1 .7-1.3-2-1.3-4.3 0-3.5.6.3 1 1.6 1 2.8zm-522.2 2.8c-1.8 2.2-4.3 5.5-5.4 7.2-2.1 3.2-9.6 9.7-11.1 9.7-.4 0-1.9 1.2-3.2 2.6-2.5 2.6-10 6.9-10.7 6.1-.3-.3 1-1.7 2.8-3.2 4.1-3.5 2.9-3-4.2 1.6-5 3.3-11.6 7.3-17.3 10.6-1.2.7-2.7 2-3.4 2.9-2 2.8-1.7-.6.4-3.6 6-8.8 17.9-20.1 28.9-27.4 3.4-2.2 23.5-10.5 25.7-10.6.5 0-.6 1.8-2.5 4.1zm-16.8-1.7c0 .2-.7.7-1.6 1-.8.3-1.2.2-.9-.4.6-1 2.5-1.4 2.5-.6zm541.4 3.6c.3 1.1.9 2.9 1.2 4 .3 1.1.1 2-.4 2-.6 0-1.3-1.1-1.6-2.4-.3-1.3-.9-3.1-1.2-4-.3-.9-.1-1.6.4-1.6.6 0 1.3.9 1.6 2zm-23.7 4.2c-.3.8-.6.5-.6-.6-.1-1.1.2-1.7.5-1.3.3.3.4 1.2.1 1.9zm4.9 6.6c-1 .9-3.5-5.8-2.9-7.5.5-1.4 1-.8 2 2.6.7 2.5 1.1 4.6.9 4.9zm-35-1.7c1.9 2.2 1.9 2.2-.3.8-1.3-.8-2.3-1.7-2.3-2.1 0-1.2.6-.9 2.6 1.3zm6.9 8.7c-.7.7-4.5-2.9-4.5-4.1 0-.6 1.1 0 2.5 1.3s2.3 2.6 2 2.8zm55.6 1.8c1.2 2.5 1.9 5.5 1.6 6.5-.3 1-.2 1.7.2 1.5.8-.6 6.3 12.6 8 19.4 1.7 6.5 2.7 36.5 1.2 35.6-.6-.4-1.1-1.4-1.1-2.2 0-.8-.5-1.4-1.1-1.4-.7 0-.9.9-.5 2.2.4 1.3.9 3.6 1.3 5.3.5 2.7.4 2.9-1.1 1.5-1.9-1.8-3.6-11.7-1.8-10.6.7.4 1.2.3 1.2-.2s-.9-1.2-1.9-1.5c-1.3-.3-2.1-1.8-2.6-4.8-.4-2.4-2.1-8.6-3.7-13.7-2.6-8.3-2.9-10.3-2.4-17.5.3-4.5.7-9.8.8-11.7.2-1.9 0-5.6-.4-8.3-.4-2.6-.5-4.7-.2-4.7s1.4 2.1 2.5 4.6zm-42.9 8c16.2 6.6 23.9 10.9 26.5 14.7 2.3 3.3 2.7 7.6.8 9-.7.6-.6 1 .3 1.4.6.2 1.2 1.2 1.2 2 0 1.3-.4 1.3-2.7-.3-1.5-.9-3.2-2.1-3.8-2.6-6.8-5.6-8.4-6.8-16.8-12.3-3.8-2.5-7.2-4.5-7.6-4.5-.4 0-1.8-1.1-3.1-2.5s-2.9-2.5-3.5-2.5c-1.4 0-5.6-5.6-4.8-6.4 1-1 1.8-.8 13.5 4zm23.3 1.4c.9 1.6 1.3 3 1.1 3-.3 0-1.2-1.4-2.1-3-.9-1.7-1.3-3-1.1-3 .3 0 1.2 1.3 2.1 3zm-533.7.3c1.7 1.3-1.3 4.6-8.9 9.8-3.1 2.1-6.3 4.4-7.1 5.1-.7.7-2.6 2-4 2.8-10.2 5.7-23.1 14.5-25.2 17.3-3 3.8-3.3 2.2-.7-3.6 1-2.3 2.5-6.1 3.2-8.5.8-2.9 1.5-3.8 2.1-3 .4.7.8.8.8.2 0-1.7 10.9-14.4 12.5-14.4.7 0 2-.6 2.7-1.3 2.1-2.2 5.5-3.7 7-3.2.7.3 4-.4 7.3-1.4 5.8-1.8 7.7-1.8 10.3.2zm-11.6 22.5c-1.8 1.2-23.7 21.7-30.8 29-4.1 4.1-7.4 8.8-9.9 13.8-4 8.3-4.2 10.4-.4 5 1.3-1.9 5.9-7.8 10.2-13 7.8-9.6 11.3-12 16-10.8 1.4.4 1.5.7.5 2-1.1 1.3-1 1.4 1 .3 2.7-1.4 2.7-1.5-.2 5-2.1 4.8-10.9 16.8-12.8 17.7-1.5.7-12.4 14.7-14.8 19-1.4 2.4-2.6 3.8-2.9 3.1-.2-.7-1.1-.3-2.3 1.2l-1.9 2.4.7-2.5c.4-1.4 1.4-3.6 2.4-5 2.3-3.4 3.1-5.8 2.1-6.4-.4-.3-1.8 1.6-3.1 4.2-2.4 4.9-5.9 10.3-7.3 11.3-.4.3-.5 1.4-.1 2.5.5 1.6.4 1.6-.5.4-.7-.9-1.1-1-1.1-.3 0 .6.5 1.5 1.1 1.9.8.4.7.9-.2 1.4-.7.5-1.4 1.8-1.6 3-.2 1.2-.8 3-1.3 3.9-2.4 4.1 1.2-13.4 4.6-22.3.5-1.4.4-1.7-.5-1.2-.7.5-.4-.8.7-3 2.1-4.3 4.7-14.2 3.9-15-.3-.3-.8.4-1.2 1.5-.3 1.2-1.1 2.1-1.6 2.1-1 0-.1-2.4 5.1-13.3 1.7-3.7 3.5-6.5 4-6.2.4.3 1.1-.2 1.4-1.1.3-.8.2-1.2-.4-.9-2.7 1.7 0-3.3 4.4-8.1 2.2-2.4 3.8-3.4 4.6-2.9.9.5 1.1.4.6-.3-.4-.7-.2-1.2.4-1.2.6 0 2.9-1.7 5-3.8 4.2-3.9 22.2-13.9 25.5-14.1 1.4 0 1.6.2.7.7zm533.4 4.3c14.4 9.3 21.5 15.1 28.3 23 7.5 8.6 12.4 17.6 11.9 21.7l-.4 2.7-1.9-3.2c-1.1-1.8-2.5-3.3-3.2-3.3-.7 0-3.1-1.8-5.5-4s-5-4-5.9-4c-.8 0-3-1.6-4.9-3.5-1.9-1.9-3.1-3.5-2.7-3.5 1.1 0-2.3-3.9-10.4-12-4.3-4.1-9.6-9.8-11.9-12.5-2.4-2.8-5-5.3-5.9-5.7-1-.4-.5-.7 1.5-.7 2.2-.1 5.6 1.5 11 5zm63.8 9.4c.8 1.7 1.6 5.4 1.9 8.1l.6 4.9-2-3.8c-1.9-3.7-3.3-4.5-4.3-2.8-.8 1.3.4 4.2 1.5 3.5.9-.5 1-.5 1.5 3.6 1.3 11.4 1.5 19.7.4 26.2-1.5 9.1-2.9 12-3 6 0-2.8-.4-4.1-1.2-4-1 .2-1.3-1.6-1.3-6.7 0-4.6-.6-8.2-1.8-10.4-2.4-4.8-2.3-9.1.3-9.1 2.2 0 2.3-.1 1.4-2.4-.3-.9-1-1.3-1.5-1-.5.3-.9-1.1-.9-3.1 0-2.2.4-3.4 1-3 .6.3 1-.4 1.1-1.7 0-1.3.3-1.7.6-1.1.2.7.9 1.3 1.5 1.3.5 0 .1-1.5-.9-3.3-1.1-1.7-1.8-4.2-1.5-5.4.3-2.2.4-2.2 2.8-.6 1.4.9 3.1 3 3.8 4.8zm3.3 20.2c-.3 1-.5.4-.5-1.2 0-1.7.2-2.4.5-1.8.2.7.2 2.1 0 3zm-58.5 14.5c1.1 2.6 3.8 6.4 5.9 8.3 2.2 1.9 3.9 4 3.9 4.6 0 .6.6.9 1.3.6 2-.8 5.8 2.7 14.2 13.3 7.1 8.8 12.7 17.9 12.3 19.7 0 .5.4 2.1 1 3.6 1.5 3.6 1.5 3.7-.5 3.7-1.3 0-1.5-.3-.5-.8.9-.7.8-1.4-.8-3.2-1.1-1.3-2-3-2.1-3.9 0-.9-.5-.3-1.1 1.4-1 2.9-1.7 11.2-1.9 21.9 0 4.7-.1 4.8-1.6 2.7-.8-1.2-1.6-2.8-1.7-3.4-.2-.7-.6-2-1.1-3-.4-1-.5-2.1-.2-2.4.9-.9-1.3-4.4-2.3-3.8-.6.3-.7-.1-.4-.9.3-.8 0-2.4-.6-3.6-1.7-3.1-.4-3.7 1.9-.9 2.9 3.4 2.6.9-.4-3.5-1.4-2.1-2.1-3.5-1.6-3.1.6.3-1-3.4-3.3-8.2-4.5-9.1-11.9-20.4-15.5-23.7-1.2-1.1-2.1-3.1-2.1-4.7 0-3.2-1.9-7.9-3.2-7.9-.4 0-.8.4-.8 1 0 .5-.7 1-1.6 1-1.1 0-1.5-.8-1.3-2.8.1-1.5-.1-3.4-.4-4.2-.9-2.2-2.7-9.3-2.7-10.5 0-1.4 4.7 6.9 7.2 12.7zm5.8-11.1c0 1.3 7.8 9.8 8.4 9.2.3-.4.6.1.6 1s.6 1.6 1.3 1.4c.6-.1 1.1.6 1 1.6 0 1.1.4 1.6 1.2 1.3 1.3-.4 1.5 1.7.3 2.9-.6.7-11.3-11-14-15.4-1.5-2.3-1.6-2.8-.3-2.8.8 0 1.5.4 1.5.8zm41.5 23.2c-.1 9.2-.6 17.1-.9 17.4-.3.4-.6-.1-.6-1 0-1.1-.5-1.4-1.6-1-1.4.5-1.6.1-1.2-2 .3-1.5.1-2.4-.3-2.1-.5.3-.9-.2-.9-1.1 0-.9-.4-1.4-.9-1-1.5.9-2.5-10.6-1.4-16 .6-2.8 2.3-7.7 3.8-11l2.8-6 .8 3.5c.4 1.9.6 11.1.4 20.3zm12.2-18.1c-.3.7-.5.2-.5-1.2s.2-1.9.5-1.3c.2.7.2 1.9 0 2.5zm-629.5 27.5c-.8 2.7-2 5.4-2.6 6.2-.6.8-1 2.2-.8 3.1.4 2.3-5.4 17-7.9 19.9-1.7 2-2.2 2.2-2.9 1.1-.5-.8-1.1-1.2-1.3-1-1.5 1.8-3.7 7.8-3.7 10.1 0 1.5-1.1 4.1-2.5 5.7-1.4 1.7-2.5 3.9-2.5 5.1 0 1.2-.4 2.9-.9 3.9-.5.9-1.4 2.8-1.9 4.2l-1.1 2.5V500c-.1-1.4.3-4 .8-5.8.5-1.7.6-3.2.1-3.2s-1.1 1.4-1.5 3.1c-.4 1.7-.9 2.9-1.1 2.6-1-1-1.1-7.4-.1-9.2.5-1.1 1.4-3.3 1.8-5 2.4-9.3 5.8-16 12.7-25.5 6.3-8.7 15.8-20 16.7-20 .1 0-.5 2.1-1.3 4.7zm-41.8 31.2c-.2.2.5 1.6 1.6 3.1 2.5 3.5 2.5 6.2.1 7.7-1.7 1-2.4.8-5.3-2-1.8-1.8-3.4-3.9-3.6-4.7-.2-.8-.7-1.6-1.2-1.8-.5-.2-.7-.9-.4-1.6.3-.7-.2-1.9-1.1-2.6-.8-.7-1.5-2.4-1.5-3.7 0-1.8-.4-2.4-1.4-2-2 .8-2.9-3.9-2-9.8.4-3 1.1-4.5 1.9-4.2.8.4 1.1-.4.8-2.1-.1-1.5 2.6 3.1 6.1 10.3 3.5 7.1 6.2 13.2 6 13.4zm630.5-4.1c2.9 5.8 4.3 10.5 3 9.7-.5-.4-.9-1.3-.9-2.1s-.4-1.3-.9-1c-.5.4-1.2 0-1.5-.6-.3-.7-.3.2 0 2.1.4 2.2.3 3.1-.5 2.7-1.2-.8-3.3-7.7-2.6-8.5.3-.2.5.1.5.8 0 .7.5.9 1 .6.7-.4.6-1.4-.2-2.8-.7-1.2-1.1-2.6-1-3.1.2-.4-.3-1.4-.9-2.2-.9-1.2-.9-1.3.3-.9.8.3 2.5 2.7 3.7 5.3zm-595.5 12.9c-1.4 3.7-.6 3.2 2.2-1.4 4.8-7.7-1.2 11.8-10.3 33.7-4.1 9.8-5.9 15.6-6.9 22.3-.9 6.3-1.8 5.2-1.5-1.9.1-3-.6-8.5-1.5-12.1-1.9-7.5-1.5-10.4 2.5-18.2 2.8-5.5 15.9-26.1 16.6-26.1.2 0-.3 1.7-1.1 3.7zm586.6 6c0 .4 1.1 3 2.5 5.7s2.5 5.9 2.5 7c0 1.2.7 4.3 1.5 6.9.8 2.6 1.4 7.7 1.4 11.2-.1 4.6.4 6.9 1.5 8.1.9.8 1.6 2.5 1.6 3.8 0 4.6-3.2 26.1-4 27.1-.5.5-1 2.6-1.3 4.5-.3 3.1-.4 2.9-.5-1.1-.1-2.6-.8-6.4-1.6-8.5-.7-2.2-1.7-9.3-2.1-15.9-.4-6.6-1.8-17-3.1-23.2-1.3-6.1-2.7-15.8-3-21.5l-.6-10.3 2.6 2.7c1.4 1.5 2.6 3.1 2.6 3.5zm5 .5c1 1.8 1.7 3.4 1.4 3.7-.6.7-5.4-4.5-5.4-5.9 0-2 2.1-.9 4 2.2zm4.3 18.1c.3 2 1 4.3 1.6 5.1.6.7.8 1.6.4 1.9-1.1 1.2-1.9.8-2-1.1-.1-.9-.6-3.3-1.1-5.2-2.6-8.8-2.6-8.7-.9-6.5.8 1.1 1.7 3.7 2 5.8zM207 524.5c-1 2.2-2.1 6.7-2.4 10-.4 3.3-.9 8-1.3 10.5-.4 3.1-.2 4.2.5 3.5.6-.6 2-6.5 3.1-13.3 2.2-13.7 4.6-19.9 3.7-9.7-.3 3.3-.9 9.5-1.2 13.7-.4 4.3-1 7.6-1.4 7.3-.4-.2-.5.7-.2 2 .2 1.4 0 3.1-.5 3.8-1.1 1.3-2.6 8.2-4.3 19.7-.7 4.1-1.4 9-1.7 10.7-.3 1.8-.9 3.3-1.4 3.3-1.1 0-3.9-9.5-3.9-13.1 0-1.9-.7-3.2-2.1-4-2.1-1.1-2.1-1.6-1.6-9.7.4-4.8 1.1-8.9 1.8-9.3.7-.4.9-1.6.6-2.8-.3-1.2-.2-1.9.2-1.6.8.4 3.1-8.2 3.1-11.6 0-1.7 3.5-11.1 7.6-20.4l1.8-4 .7 5.5c.6 4.3.3 6.3-1.1 9.5zm634 9.4c0 1.4-7.1 9.6-11.7 13.4-2.3 1.9-7.9 7.1-12.5 11.5-4.5 4.5-8.4 7.9-8.6 7.8-.4-.5 3.9-7.7 5.9-9.9 1-1.1 3.5-4.1 5.6-6.7 2.1-2.7 5.6-6 7.8-7.4 2.2-1.4 5.2-3.7 6.7-5.1 1.5-1.4 3.2-2.5 3.8-2.5.5 0 1-.5 1-1 0-.6.5-1 1-1 .6 0 1 .4 1 .9zm-656 24.2c0 .7-.9 0-2-1.4s-2-2.8-2-3.1c0-.3.9.3 2 1.4 1.1 1.1 2 2.5 2 3.1zm593-3.6c.8 1 1 3.4.5 8.2-.8 7.4-1.2 10.5-1.5 11.3-.1.3-.2.8-.1 1.2.4 3-2.5 16.4-5.4 24.8-1.9 5.6-3.4 10.5-3.3 10.8.4 1.6-1.3 4.8-3.2 6-1.7 1-2.1 1-2.6-.3-.7-1.7 1.6-18.9 2.4-18.1.3.3 2.3-3.8 4.5-9.2 2.1-5.3 4.3-10 4.9-10.3.5-.3-.2-1.3-1.6-2.3-1.7-1.1-2.6-1.2-2.6-.5s-.2 1-.5.8c-.7-.8.7-4.9 1.5-4.4 1.2.7 3.4-10.1 3.2-15.3-.1-4.4 1.4-5.6 3.8-2.7zM223 583c.5 8.5 1.2 19.4 1.6 24.2.5 6.2.4 8.8-.4 8.8-.6 0-1.6-.8-2.1-1.8-.8-1.4-1-1-1.1 2 0 6.6-1.9 4.7-6-6-2.3-6.2-2.6-16.2-.5-20.7l1.3-3 .1 2.7c.1 1.6.5 2.8 1 2.8s1.2 1 1.4 2.2c.3 1.9.5 1.8.6-.6.1-3.4-1.9-10.6-3-10.6-.4 0-1 .6-1.2 1.2-.4 1-.6 1-.6.1-.1-.6.3-1.4.9-1.8.5-.3.6-1.3.3-2.1-.7-1.9 1.7-12.4 2.9-12.4.4 0 .8-1.1.8-2.3 0-1.3.3-2.7.7-3.1 1.4-1.3 2.3 4.8 3.3 20.4zm609-5.6c-4.1 5.7-10.7 10.6-39.2 29.5-8.7 5.6-10.8 6.7-10.8 5.2 0-2.8 14.5-14.5 25.5-20.6 6-3.3 13.8-8.9 18.2-13 1.8-1.6 3.8-3.5 4.5-4.2.7-.7 2.1-1.2 3.1-1.3 1.6 0 1.4.7-1.3 4.4zm-630.6 11.1c.3.8.1 1.5-.4 1.5-.6 0-1-.7-1-1.5s.2-1.5.4-1.5.6.7 1 1.5zm573.7 10.6c-.5 1.3-1 1.9-1 1.2-.1-1.5 1-4.5 1.5-4 .3.2 0 1.5-.5 2.8zM756.6 614c-.4 1.9-.9 4.6-1.1 6-1.9 11-2.4 11-1.9.1.2-6.3.8-12.6 1.1-14 .6-2.5.7-2.5 1.6.9.5 1.9.6 5.1.3 7zm-5.3-3.7c-.7 1.2-1 3.8-1.7 17.7-.5 9.7-2.5 16-6.5 21-1.5 1.9-3.6 5.1-4.6 7-2.7 5.3-7.6 12.2-8.2 11.6-.3-.3.1-2.5 1-4.8 1.5-4 2.7-9.2 6.2-26.8 2.1-10.2 11.3-28.9 13.6-27.4.5.3.6 1.1.2 1.7zm21.2 1.7c-.4 1.7-.9 2.9-1.2 2.6-.3-.2-.2-1.9.2-3.6.4-1.7.9-2.9 1.2-2.6.3.2.2 1.9-.2 3.6zm-528.3 3c.4 0 .8.5.8 1.1 0 .6 1.6 4.4 3.6 8.5 4.5 9.5 10.3 37.3 8.4 40.5-1.2 1.8-4.5-3.4-6.4-9.8-.9-3.2-2.4-7.4-3.2-9.3-3-6.7-4.7-12.6-5.1-17-.1-2.5-.5-7.7-.8-11.5-.4-5.7-.3-6.6.6-4.8.7 1.3 1.6 2.3 2.1 2.3zm560.2-3.1c.3.5-.1 1.1-.9 1.5-.8.3-1.5 1.2-1.5 2 0 1.5-3.8 4.2-5.2 3.8-.5-.1-.8.4-.8 1.2 0 1-2 1.9-5.7 2.6-3.2.7-6.7 2-7.8 3-1.1 1-3.1 2.3-4.3 3-2 1-2.3.9-1.5-.2 1.8-2.9 12-11.5 15.6-13.2 10.6-4.9 11.3-5.1 12.1-3.7zM221 624.5c0 .5-.5.3-1-.5s-1-2-1-2.5c0-.6.5-.3 1 .5s1 1.9 1 2.5zm0 16.8c0 .6-.9.2-2-.8s-2-2.3-2-2.8c0-.6.9-.2 2 .8s2 2.3 2 2.8zM204 652c1 1.3 8.6 2.9 11.3 2.3 1.8-.4 3.2 0 4 .9.7.8 3.5 2.4 6.4 3.6 7.5 3 15.7 8.9 26.9 19.3 10.7 9.8 13.4 13.3 6.3 8-2.4-1.8-7.9-5.6-12.1-8.4-4.3-2.8-7.8-5.5-7.8-6 0-2.6-9.4-7.2-25.8-12.8-10.6-3.5-15.2-6-15.2-8.1 0-.9 5.2.1 6 1.2zm593.7.3c-5 3.2-5.3 3.6-3.7 4.7 1.3.8.9 1.5-2 4.3-1.9 1.8-5.5 5.6-7.9 8.5-2.6 3-5 5.1-5.8 4.8-.7-.3-1.3 0-1.3.8 0 .7-.6 1.3-1.2 1.3-.7 0-2.6.4-4.3.8l-3 .8 2.8-2.4c2.7-2.4 2.8-2.4.7-3.7-1.7-1-2.3-.9-3.8.9-.9 1.1-3.5 2.9-5.7 4-2.3 1.1-5.4 3.2-7.1 4.7-3.2 2.9-8.6 5.2-12.3 5.2-1.2 0-1.9-.4-1.6-1 .9-1.4-1.9-1.2-3.4.2-1.1 1.1-1.3 1-.9-.2.6-1.9 9.3-5 14.2-5 3.1 0 4.5-.7 7-3.3 3.4-3.5 13.8-9.1 15.8-8.5.6.2 2.1-.5 3.3-1.7 1.1-1.2 4.5-3.2 7.5-4.5 3-1.3 6.2-3 7-3.7 1.2-1.1.9-1.3-2-1.3-3.2 0-3.3-.1-1.4-1.6 1.8-1.5 1.8-1.5-.6-.9-4.9 1.2-16 1.7-16 .8 0-1.1.4-1.2 9.8-1.9 4-.3 8.7-1.1 10.5-1.9 1.7-.8 4.1-1.4 5.2-1.4 1.9 0 1.9.1.2 1.2zM272 659.5c.8-.5 1.8.6 11.3 12.5 8.3 10.4 19.1 30.5 20.7 38.2.9 4.4.2 4.7-3 1.3-1.2-1.3-2.6-2.3-2.9-2.2-.4.1-1.7-.8-3.1-2.1-1.3-1.2-2.7-2.2-3-2.2-.4 0-1.3-1.2-2.1-2.8-.8-1.5-1.6-2.9-1.9-3.2-1.4-1.3-7-13.2-7-14.8 0-1-.5-2.3-1-2.8-.6-.6-3.4-5.8-6.3-11.6-3.6-7.2-4.9-10.8-4.2-11.5.7-.7 1.1-.6 1.3.3.2.8.7 1.2 1.2.9zm495 0c0 .8-.4 1.5-1 1.5-.5 0-.7-.7-.4-1.5.4-.8.8-1.5 1-1.5.2 0 .4.7.4 1.5zm17.7-.9c-.3.3-1.2.4-1.9.1-.8-.3-.5-.6.6-.6 1.1-.1 1.7.2 1.3.5zm-69.6 10.5c-1.2 1-2.1 2.5-2.1 3.6 0 1-.9 2.9-2 4.3s-2 2.9-2 3.3c0 .5-1.3 2.7-2.8 5-1.6 2.3-3.6 5.9-4.5 7.9-1 2-2.4 4.3-3.1 5-.8.7-3.9 3.7-7 6.7s-5.6 4.9-5.6 4.1c0-2.6 9.1-16.9 12.3-19.3 1.9-1.4 4.9-5.7 7.1-9.8 2-4.1 5.4-10 7.4-13.1l3.7-5.8.3 3.2c.3 2.4-.2 3.7-1.7 4.9zm48.9-7c0 .6.9.8 2 .4 3.3-1 2.3.2-2.2 2.8-2.4 1.3-7 4-10.3 5.9-3.3 1.8-6.9 3.7-7.9 4.1-2 .8-2 .8 0-1.5 3.2-3.7 6.8-6.7 8.1-6.8.6 0 1.3-.4 1.5-.9.3-1 6.9-5.1 8.1-5.1.4 0 .7.5.7 1.1zm-547.5 9.8c2.2.5 6.3 1.5 9 2.2 5.7 1.4 13.3 4.6 15.5 6.4.8.7 4.4 2.5 8 4.1 3.6 1.5 8.8 4.3 11.6 6.1 2.9 1.7 5.4 2.9 5.8 2.6.7-.7 4.6 2.6 4.6 3.8 0 .5-.8.5-1.7.2-1.6-.6-1.6-.5-.4 1 2 2.6.2 2-3.8-1.1-1.9-1.5-5.7-3.6-8.3-4.8-2.7-1.1-4.6-2.3-4.3-2.6 1.4-1.4-14.1-6.8-19.6-6.8-3 0-13.5-3.2-17.3-5.2-2.3-1.3-11.8-9.8-13-11.7-.3-.5 1.8.4 4.7 1.9 2.8 1.6 7 3.3 9.2 3.9zm62.5 15.2c0 .6-.4.7-1 .4-.5-.3-1-1.1-1-1.6 0-.6.5-.7 1-.4.6.3 1 1.1 1 1.6zm457 .3c0 .2-.7.7-1.6 1-.8.3-1.2.2-.9-.4.6-1 2.5-1.4 2.5-.6zm5.6 2.5c-.7 1.1-6.6 3.2-6.6 2.4 0-.3.8-1.2 1.8-1.9 1.9-1.5 5.6-1.9 4.8-.5zm-416.8 16.5c4 2.7 7.5 5.3 7.8 5.7.3.5 1.4.9 2.4.9 1.1 0 2.4.8 2.9 1.8s3.2 4.1 6 6.9c6.3 6.4 7.2 11.6 1.1 6.3-1.3-1.1-2.9-2-3.6-2-.7 0-1.7-.6-2.1-1.3-1-1.5-6.1-4.2-6.8-3.6-.2.3.2 1.8 1 3.3 1.7 3.1 2 6 .5 3.6-.5-.8-1-1.1-1-.6 0 .5-.6.3-1.3-.3-.8-.6-1.8-.7-2.2-.3-.5.4-.5-.1-.2-1 .3-1 .2-2-.3-2.3-.4-.3-1 0-1.2.6-.2.5-1.3-1-2.5-3.5-1.7-3.4-1.9-4.4-.8-3.9 2.7 1 1.6-1.4-2.8-6-4.1-4.3-11.7-14.8-11.7-16.2 0-.4 1.7 1.1 3.8 3.2 2.1 2.1 7 6 11 8.7zm407.2-12c0 .2-.8 1-1.7 1.7-1.6 1.3-1.7 1.2-.4-.4 1.3-1.6 2.1-2.1 2.1-1.3zm-59.9 6c-.9 1-.9 1.5-.1 1.8.7.2 0 1.6-1.5 3.2-1.8 1.9-2.3 3.1-1.5 3.6 2 1.2-.9 5.8-4.1 6.5-1.6.4-2.9 1.1-2.9 1.5 0 .5-.7.7-1.5.4-.8-.4-1.5-1-1.5-1.6 0-.5.5-.6 1-.3.6.3 1 .1 1-.5 0-2.2 10.9-17.4 11.8-16.5.3.2 0 1.1-.7 1.9zm-22.2 15c-2.5 2.3-14.4 10.6-15.2 10.6-1.7 0 12.9-10.8 14.7-10.9.5-.1.7.1.5.3zm-382.5 5.8c5.6-.4 15.7 1.9 18.6 4.4.8.7 5.3 2 9.9 2.8 8.3 1.6 19.3 6.6 29.1 13.2 4.9 3.4 2.8 3-11.7-2.2-13.2-4.7-27.7-8.5-39.8-10.4-6.9-1.1-21.3-5.4-22.7-6.9-.5-.4 1.7-.7 4.7-.6 3 0 5.5-.4 5.6-1 0-.6.2-.6.5.1.3.6 2.5.9 5.8.6zm469.2 0c-1.1.6-3.3 1.4-5 1.9-1.7.4-4.2 1.1-5.5 1.5-1.9.6-2.2.4-1.9-1.2.2-1.5 1.5-2 5.8-2.5 8.8-.9 8.7-.9 6.6.3zm8.3 1.3c-1.4.7-5.4 1.6-9 1.9l-6.4.5 5-1c2.8-.6 5.4-1.4 6-2 .5-.5 2.3-.9 4-.9l3 .1-2.6 1.4zm-406.9 6c1.1 1.3 1 1.4-.4.9-.9-.3-1.6-1-1.6-1.5 0-1.3.6-1.1 2 .6zm18.6 5.2c-.6.7-5.6-2.7-5.6-3.9 0-.5 1.4 0 3.1 1.2 1.6 1.2 2.8 2.4 2.5 2.7zm346.2-4.2c-.3.3-4 1.4-8.4 2.6-9.4 2.4-22.5 6.9-23.8 8.1-1.9 1.6-2.9.7-1.2-1.1 2.2-2.4 14.3-7.4 15.8-6.5.7.5.8.2.3-.6-.5-.9-.2-1 1.2-.6 1.1.4 3.5 0 5.4-.8 3.1-1.4 11.9-2.3 10.7-1.1zm-358.8 3c.7.9 1 1.8.7 2.1-.9 1-3.9-.5-3.3-1.5.4-.5 0-1.2-.6-1.4-.9-.4-.7-.6.3-.6.9-.1 2.2.6 2.9 1.4zm-58.7.2c-.7.2-1.9.2-2.5 0-.7-.3-.2-.5 1.2-.5s1.9.2 1.3.5zm4.4.9c-.3.3-1.2.4-1.9.1-.8-.3-.5-.6.6-.6 1.1-.1 1.7.2 1.3.5zm60.4 2.8c.7-.4 1-.3.6.3s0 1.9.8 2.9c.9 1.1 1.4 1.4 1.5.6 0-1.6 4.2.5 8.5 4.3 2.9 2.6 2.9 2.7.5 1.9-1.4-.4-3.4-.7-4.4-.6-2.4.1-8.2-4.6-7.8-6.4.1-.7-.7-1.5-1.8-1.9-1.1-.3-2-1.4-2-2.3.1-1.5.2-1.5 1.5.2.8 1 1.9 1.5 2.6 1zm293.4 1.5c-.3.6-1.1 1.1-1.7 1.1-.6 0-.6-.6.2-1.5 1.4-1.7 2.6-1.3 1.5.4zm71-.9c-.3.5-1.2 1-2 1-.7 0-2.1.7-2.9 1.6-2.4 2.3-15.1 5.1-26.3 5.8-8.5.5-9.3.4-6.3-.7 1.9-.7 4.1-1.6 4.8-2 .7-.5 2.6-.9 4.2-.9 1.6-.1 2.7-.4 2.5-.9-.3-.4 2.5-1.1 6.2-1.4 3.8-.4 9.3-1.3 12.3-2 6.9-1.7 8.3-1.8 7.5-.5zM302 743.6c14.2 4.6 16.9 5.8 15.7 7-1.4 1.4-22.9-5.5-35.2-11.2-6.1-2.8 5.4-.4 19.5 4.2zm83.5-.6c.3.6-.1.7-.9.4-1.8-.7-2.1-1.4-.7-1.4.6 0 1.3.4 1.6 1zm16 6.6c1.7.9 3.9 1.7 5 1.9 1.1.1 2.4.3 2.8.4.5 0 .5.6.1 1.3-.4.7-.3.8.4.4s2-.2 2.9.3c1 .6 1.4 1.1.9 1.1-.6 0 4.5 2.7 11.2 6.1 6.7 3.4 13.6 7.4 15.3 9 1.6 1.5 4.7 3.4 6.7 4.1 2 .6 4.2 1.6 4.7 2.1.6.5.3.5-.8.1-1.3-.5-1.6-.2-1.1 1 .3.9 1 1.6 1.5 1.6s.9.5.9 1.1c0 .6-1.2.1-2.8-.9-1.5-1.1-5.1-2.8-8-3.7-2.8-1-5.2-2.1-5.2-2.5 0-.4-1.1-1.1-2.5-1.4-1.4-.4-2.5-1.1-2.5-1.6 0-.6-.6-1-1.2-1-.7 0-4.1-2.5-7.5-5.6-3.5-3.1-6.3-5.3-6.3-5 0 .5-18.8-8.8-19.8-9.9-1.2-1.1 2.5-.4 5.3 1.1zm185 1.7c-2.1 1.5-6.5 2.8-6.5 2.1 0-.6 6.1-3.3 7.5-3.4.5 0 .1.6-1 1.3zm-8.8 6.2c-.4.8-1.4 1.5-2.4 1.4-1.6 0-1.6-.1.2-.9 1.3-.6 1.5-.9.5-.9-1.3-.1-1.3-.2 0-1.1 1.8-1.1 2.4-.6 1.7 1.5zm-223.7 4c16.3.5 19.5 1.2 32.5 7 7 3.1 8.7 4.4 7.9 5.7-.3.5-1.2.4-2-.3-.9-.7-6-1.5-11.7-1.8-5.6-.4-11.1-1.1-12.2-1.8-1.1-.6-3.8-1.1-6-1.2-2.2 0-6.7-.6-10-1.2-8.5-1.5-9-1.5-35.5.8-8.9.8-11.1.6-12.9-1.2-1.1-1.1-1-1.4.8-2 1.1-.3 2.1-1 2.1-1.5 0-1.8 13.6-3.8 24-3.3 4.1.1 14.5.5 23 .8zm308.3-.1c4 .8 8.3 1.7 9.7 1.9 2.6.4-11.9 1.1-15.5.7-1.1-.1-2.1-.6-2.3-1.1-.2-.5-3.8-.9-7.9-.9-6.1 0-7.4.3-7 1.4.4 1.1-1.2 1.8-6.6 3-14.8 3.1-16.1 3.2-19 1.8-2.1-1.1-3.2-1.1-4-.3-1.4 1.4-6.4 1.5-7.2.1-.3-.6.6-1.5 2.1-2 2.7-1.1 21.7-3.6 35.4-4.7 4.1-.3 7.7-.7 7.9-.9.9-.8 7.5-.3 14.4 1zM678 764c0 .5-.7 1-1.6 1-.8 0-1.2-.5-.9-1 .3-.6 1-1 1.6-1 .5 0 .9.4.9 1zm4 1c0 .5-.7.7-1.5.4-.8-.4-1.5-.8-1.5-1 0-.2.7-.4 1.5-.4s1.5.4 1.5 1zm-125.6 2.4c-1.1.8-3.4 1.7-5 2.1-2.5.4-2.3.2 1.1-1.4 4.8-2.3 6.7-2.7 3.9-.7zm112.3.2c-.3.3-1.2.4-1.9.1-.8-.3-.5-.6.6-.6 1.1-.1 1.7.2 1.3.5zm11.3 1.9c-.7.8-2.2 1.5-3.4 1.4-1.8 0-1.6-.3.9-1.4 3.9-1.8 4-1.8 2.5 0zm-326.3 2.2c0 1.1-.8 1.3-3 .9-1.6-.3-4.4-.6-6.1-.7-3-.1-3-.1-.6-.9 4.1-1.3 9.7-.9 9.7.7zm170.3 8c-3.6 3.7-7 7.1-7.6 7.5-.7.4-1.5 1.9-1.8 3.3-.4 1.4-1.1 2.5-1.6 2.5-.6 0-1 1.1-1 2.5 0 2.9 0 2.9-3.3 1.2-2.3-1.2-2.4-1.5-1.1-3.8.7-1.3 1.3-2.9 1.3-3.4 0-.6-.7.3-1.5 1.8-1.7 3.2-3 3-1.9-.2.7-2.4 7.1-7.1 9.5-7.1.9 0 3.1-1.5 5-3.3 3.6-3.3 9.2-7.6 10-7.7.2 0-2.5 3-6 6.7zm-174.3 1.9c-.3.3-1.2.4-1.9.1-.8-.3-.5-.6.6-.6 1.1-.1 1.7.2 1.3.5zm56.3 7.8c2.8.9 3.9 1.6 3 2-2.4.8-28.9 8.7-34.8 10.2-9.3 2.5-10.9 1.5-2.9-1.8 2.3-.9 3.7-1.7 3.1-1.7-.6-.1-1.1-.8-1.1-1.6 0-1.5 1-1.9 3.5-1.6.6.1 1.2-.2 1.2-.7 0-.6.7-1.3 1.6-1.6.8-.3 1.2-.2.9.4-.9 1.5.1 1.2 4.7-1.1 3.4-1.7 4-1.8 3.5-.5-.8 2 .7 2.1 2.6.2.7-.8 3.4-1.9 5.8-2.4s4.4-1 4.4-1.1c0 0 2 .6 4.5 1.3zm67.9 4.9c1.7 5.6 1 8.1-2.1 7.1-1.3-.3-2.3-.7-2.4-.8-.1 0-.4-2.9-.7-6.3-.6-6.1-.6-6.2 1.6-5.4 1.4.5 2.6 2.4 3.6 5.4zm112.1-3.8c4.1 1.3 8.4 2.5 9.6 2.5 1.1 0 2.4.4 3 .8.5.5 5.5 2.3 11.2 4.2 5.6 1.8 10.2 3.7 10.2 4.1 0 .4-1.5.3-3.2-.3-1.8-.5-5.1-1.4-7.3-1.9-6.7-1.6-32.9-10.1-33.9-11-1.8-1.7 2.9-.9 10.4 1.6zm-88.4 5.3c.5.4 1.6 2.2 2.4 4 1 2.7 1 3.5 0 4.5-1 .9-1.4.9-1.7-.1-.3-.8-.9-1-1.6-.3-.7.5-3.5 1.1-6.4 1.2-4.7.4-5.2.2-5.6-1.9-.3-1.4.1-2.6.9-2.9.8-.3 1.2-.9.9-1.3-1.4-2.2 8.4-5.1 11.1-3.2zm63.2.6c3.5.8 6.6 1.7 7 2.1.4.4-1.1.3-3.3-.2-2.2-.4-12.7-.7-23.3-.6-10.7.1-19.2-.1-18.9-.3 2.2-2.2 29.6-2.9 38.5-1zm-118.2 1.3 7.9.6-5.3 1.3c-3.3.7-7.7.9-11.3.5-3.2-.4-7.2-.7-8.9-.6-1.6.1-3-.2-3-.6 0-1.6 9.4-2.2 20.6-1.2zM510 799c.8.5 1.1 1.2.8 1.6-1 .9-3.8-.3-3.8-1.6 0-1.2 1-1.3 3 0zm-111 3c-.8.5-2.8.9-4.5.9-3-.2-3-.2.5-.9 5.1-1.1 5.7-1.1 4 0zm4.7-.4c-.3.3-1.2.4-1.9.1-.8-.3-.5-.6.6-.6 1.1-.1 1.7.2 1.3.5zm99.5 13.8c.4 2.2.3 2.3-1.8 1.4-1.3-.6-2-1.6-1.7-2.4.8-2.2 3-1.6 3.5 1zM481 815c0 .5-.2 1-.4 1-.3 0-.8-.5-1.1-1-.3-.6-.1-1 .4-1 .6 0 1.1.4 1.1 1z"/><path d="M618.8 225.7c.7.3 1.6.2 1.9-.1.4-.3-.2-.6-1.3-.5-1.1 0-1.4.3-.6.6zM301.5 271c-1.9.8-1.9.9.2.9 1.2.1 2.5-.4 2.8-.9.7-1.2-.2-1.2-3 0zM700.8 273.7c.7.3 1.6.2 1.9-.1.4-.3-.2-.6-1.3-.5-1.1 0-1.4.3-.6.6zM741.8 311.7c.7.3 1.6.2 1.9-.1.4-.3-.2-.6-1.3-.5-1.1 0-1.4.3-.6.6zM249.4 331.1c-1.9 2.2-1.9 2.2.3 1 2.4-1.2 3.9-3.1 2.5-3.1-.5 0-1.7 1-2.8 2.1zM244 334.6l-2.5 1.5 2.5-.7c2.8-.7 3.5-1.2 2.9-1.8-.2-.2-1.5.2-2.9 1zM219 358.1c0 .5.5.7 1 .4.6-.3 1-.8 1-1.1 0-.2-.4-.4-1-.4-.5 0-1 .5-1 1.1zM189.6 414.5c-.9 2.6-.7 3.2.5 1.2.6-1 .9-2.1.6-2.3-.2-.3-.7.2-1.1 1.1zM830.8 407.2c-.3 4.6-.6 7.4-1.3 10.5-.7 3.2.8 4.9 1.7 2 .7-1.9 1-14.7.4-14.7-.3 0-.7 1-.8 2.2zM793 516.6c0 .8.5 1.2 1 .9.6-.3 1-1 1-1.6 0-.5-.4-.9-1-.9-.5 0-1 .7-1 1.6zM216.1 575.5c0 .5.6 1.9 1.4 2.9.8 1.1 1.5 1.5 1.5 1 0-.6-.7-1.9-1.5-3-.8-1-1.4-1.5-1.4-.9zM215 596.9c0 .6.4 1.3 1 1.6.6.3.7-.1.4-.9-.7-1.8-1.4-2.1-1.4-.7zM827.6 577.5c-1.1.8-1.7 1.7-1.4 2 .2.3 1.3-.4 2.3-1.5 2.1-2.3 1.8-2.5-.9-.5zM746.5 624c.4.6 1.1.8 1.6.5 1.4-.9 1.1-1.5-.7-1.5-.8 0-1.2.5-.9 1zM252.2 652.5c0 1.6.2 2.2.5 1.2.2-.9.2-2.3 0-3-.3-.6-.5.1-.5 1.8zM781 667.1c-1.7 1.3-1.8 1.7-.5 1 3.3-1.7 5.1-3.1 4-3.1-.5 0-2.1 1-3.5 2.1zM328.5 718c.3.5.8 1 1.1 1 .2 0 .4-.5.4-1 0-.6-.5-1-1.1-1-.5 0-.7.4-.4 1zM690.6 741.9c-.3.4.6.6 1.9.3 1.4-.2 2.5-.6 2.5-.8 0-.8-3.9-.4-4.4.5zM620.3 766.7c.9.2 2.3.2 3 0 .6-.3-.1-.5-1.8-.5-1.6 0-2.2.2-1.2.5zM383.5 795c-.3.6.1.7.9.4 1.8-.7 2.1-1.4.7-1.4-.6 0-1.3.4-1.6 1zM668.8 212c3.5 3.4 6.7 5.9 7 5.5.7-.7-5.2-6.2-10.3-9.7-1.6-1.1-.2.8 3.3 4.2zM304.2 234.2c-1.8 1.1-3.1 2.2-2.9 2.5.6.5 6.7-3 6.7-4 0-.9.2-.9-3.8 1.5zM233.7 294.9c-.4 1.7-.3 2.1.5 1.3.5-.5.8-1.6.6-2.3-.3-.8-.7-.3-1.1 1zM446.9 303.7c-.1.5-.2 13.8-.3 29.8l-.1 29-37.7.3c-32.6.2-37.8.4-37.8 1.7 0 .8 3.7 8.9 8.3 18.1l8.2 16.6 22-.4 22-.3v167h-32l-7.7 15.5c-4.2 8.5-7.7 16.1-7.7 16.7-.1 1 7.1 1.3 31.2 1.5l31.2.3.1 17.5c0 9.6.1 22.1.2 27.7l.2 10.3h35v-55h20v55h33v-16.3c.1-14.2.9-38.9 1.4-39.4.1-.1 4.4-.9 9.6-1.7 12.9-2.1 19.8-4 29.4-8.1 23.8-10.3 39.6-27.9 44.1-49.2 3.9-18.3-.3-35.8-11.4-48.5-5-5.7-16.5-13.5-24.5-16.8l-5.8-2.3 2.3-1.8c1.3-1 2.8-1.9 3.3-1.9 1.7 0 11.5-9.1 15.2-14.1 12.1-16.6 12.2-42.1.2-60.5-11.4-17.4-35.1-29.9-59.8-31.6l-3.5-.3.4-12.6c.2-7 0-20.3-.4-29.8l-.7-17.1h-33.1l.4 29.7.4 29.8-10.2.3-10.3.3v-27.8c0-15.3-.3-28.8-.6-30.1-.6-2.2-.9-2.2-17.5-2.2-9.3 0-17 .3-17 .7zm77.6 96.8c8.4 2.4 12.8 4.8 16.9 9.7 4.4 5.1 6.6 12 6.6 20.8 0 12.8-7.5 23-20.8 28.1-5 1.9-8.3 2.2-25.4 2.7l-19.8.5v-64.6l18.3.6c12 .4 20.2 1.2 24.2 2.2zm3.9 97c14.2 3 24.6 9.9 29 19.4 3.1 6.7 2.9 18.8-.3 25.5-4.8 9.7-14.1 16.3-29.3 20.7-5.9 1.7-11.1 2.2-27.2 2.6l-19.9.6.6-4.8c.4-2.6.7-18.7.7-35.8v-31l19.8.7c10.8.4 22.8 1.3 26.6 2.1zM214.2 475c0 1.4.2 1.9.5 1.2.2-.6.2-1.8 0-2.5-.3-.6-.5-.1-.5 1.3zM177.2 605c.7 1.1 1.7 2 2.2 2 .5 0 .1-.9-.9-2s-2-2-2.2-2c-.2 0 .2.9.9 2z"/></svg>