<?xml version="1.0" standalone="no"?>
<!DOCTYPE svg PUBLIC "-//W3C//DTD SVG 20010904//EN"
 "http://www.w3.org/TR/2001/REC-SVG-20010904/DTD/svg10.dtd">
<svg version="1.0" xmlns="http://www.w3.org/2000/svg"
 width="1024.000000pt" height="1024.000000pt" viewBox="0 0 1024.000000 1024.000000"
 preserveAspectRatio="xMidYMid meet">

<g transform="translate(0.000000,1024.000000) scale(0.100000,-0.100000)"
fill="#000000" stroke="none">
<path d="M3935 8480 c-3 -11 -15 -25 -25 -30 -16 -9 -18 -8 -14 5 4 8 -22 -15
-58 -52 -93 -100 -111 -127 -39 -58 l64 60 -47 -61 c-59 -78 -147 -148 -326
-264 -59 -39 -86 -60 -75 -60 4 0 16 7 25 15 10 9 30 18 46 20 16 2 56 11 89
19 76 19 244 20 310 2 28 -8 43 -15 35 -15 -8 -1 -45 -11 -82 -22 -57 -18 -65
-24 -52 -33 14 -10 9 -14 -28 -26 -23 -7 -48 -17 -54 -22 -6 -4 -14 -5 -17 -1
-4 3 -7 1 -7 -5 0 -17 -80 -39 -89 -24 -10 16 -155 -9 -201 -34 -72 -41 -81
-45 -98 -41 -14 3 -12 6 9 16 14 7 30 21 36 31 10 16 9 17 -10 12 -21 -5 -20
-3 7 34 16 21 42 52 58 68 15 15 28 33 28 38 0 5 16 29 35 52 19 24 35 49 35
56 0 7 9 28 21 46 13 22 16 33 7 30 -7 -2 -28 -7 -46 -10 -33 -6 -33 -5 -27
24 7 33 -10 42 -20 11 -3 -11 -46 -60 -94 -109 -49 -48 -92 -99 -96 -112 -13
-39 -47 -80 -87 -103 -21 -11 -38 -24 -38 -27 0 -3 -8 -15 -17 -26 -10 -10
-56 -63 -102 -117 -46 -53 -87 -97 -91 -97 -4 0 -2 15 4 34 6 19 14 32 18 30
4 -3 5 2 2 10 -9 24 41 186 58 186 4 0 6 8 6 18 0 9 3 25 7 35 5 13 3 16 -8
11 -9 -3 -18 -13 -20 -22 -3 -10 -5 -5 -6 11 -2 40 -21 33 -21 -8 0 -19 -5
-35 -11 -35 -7 0 -8 11 -4 30 10 43 -7 37 -33 -12 -27 -51 -43 -76 -102 -154
-25 -33 -61 -91 -80 -128 -22 -43 -36 -62 -38 -51 -4 19 -40 -51 -74 -145 -34
-93 -51 -130 -61 -130 -6 0 -5 5 1 13 5 6 12 64 16 127 3 63 9 125 12 138 4
12 2 22 -2 22 -5 0 -14 -10 -19 -22 -6 -13 -15 -23 -22 -23 -19 0 -24 -10 -34
-79 -5 -37 -18 -92 -30 -124 -12 -31 -34 -106 -49 -167 -32 -124 -36 -127 -16
-10 11 67 14 133 6 155 -3 10 -30 -88 -51 -185 -11 -55 -29 -118 -39 -140 -10
-22 -28 -64 -41 -93 -12 -29 -23 -51 -25 -50 -1 2 3 28 11 59 7 31 10 69 8 83
-5 25 -6 25 -19 9 -12 -16 -14 -11 -15 37 -1 50 -16 124 -18 91 -1 -11 -6 -10
-25 3 l-25 16 -16 -58 c-10 -31 -23 -85 -30 -119 -7 -34 -18 -78 -25 -98 -7
-20 -10 -49 -8 -65 2 -16 1 -27 -4 -24 -4 3 -8 -1 -8 -8 -4 -122 -15 -185 -48
-285 -20 -62 -39 -113 -42 -113 -14 0 -29 152 -24 241 4 57 2 104 -4 115 -8
14 -11 10 -17 -24 -4 -23 -11 -44 -16 -48 -5 -3 -9 -14 -9 -25 0 -23 -8 -24
-31 -3 -17 15 -19 13 -34 -40 -9 -31 -16 -71 -16 -89 2 -81 0 -137 -5 -202 -4
-38 -7 -92 -8 -120 -2 -27 -9 -92 -16 -144 -11 -78 -15 -91 -25 -77 -11 14
-13 3 -12 -61 1 -43 -5 -107 -13 -142 l-15 -63 -43 129 c-53 157 -62 225 -45
324 8 41 15 86 18 101 2 15 8 35 13 45 5 10 12 34 15 53 5 26 -6 12 -39 -54
-63 -124 -95 -252 -97 -391 l-2 -110 43 -75 c67 -118 163 -317 166 -345 6 -46
-14 -26 -50 53 -76 165 -133 271 -166 308 -11 12 -23 34 -28 50 l-8 29 -1 -30
c-1 -17 -6 -36 -11 -41 -14 -14 -25 -170 -16 -218 4 -21 46 -94 101 -177 52
-77 95 -146 95 -153 0 -7 11 -26 25 -42 69 -80 118 -228 89 -269 -13 -19 -14
-18 -8 12 8 42 -8 83 -63 156 -24 33 -43 64 -43 70 0 7 -5 4 -11 -5 -7 -12 -6
-25 2 -40 7 -13 12 -25 12 -28 0 -3 3 -15 8 -28 5 -13 9 -28 9 -33 0 -6 16
-38 35 -71 20 -33 33 -63 30 -67 -4 -3 -11 2 -16 12 -6 9 -14 17 -20 17 -12 0
-42 30 -94 95 -21 28 -42 52 -46 55 -16 11 -80 153 -108 236 -16 49 -33 118
-37 153 -10 95 -24 54 -31 -92 -11 -246 48 -405 198 -531 174 -149 240 -221
253 -280 7 -28 4 -27 -41 21 -91 95 -183 154 -183 116 0 -8 4 -12 9 -9 5 3 8
0 7 -7 0 -7 36 -53 82 -101 57 -62 82 -83 82 -70 0 15 7 12 35 -18 34 -36 45
-68 25 -68 -5 0 -17 14 -25 31 -9 17 -19 28 -23 25 -3 -4 0 -12 6 -18 7 -7 12
-15 12 -20 0 -4 -19 13 -41 37 -23 25 -45 45 -50 45 -11 0 39 -92 59 -107 8
-7 13 -16 9 -19 -3 -3 -26 14 -50 38 -25 23 -62 58 -82 77 -71 64 -215 324
-217 390 -2 48 -23 31 -25 -20 -6 -109 25 -264 80 -403 49 -123 93 -191 134
-207 21 -8 32 -18 28 -26 -2 -8 1 -13 8 -12 25 3 38 -1 32 -11 -3 -5 -3 -15 1
-21 4 -8 9 -7 15 2 6 10 13 11 31 2 13 -6 61 -29 108 -52 67 -31 106 -59 182
-130 84 -80 197 -216 186 -226 -2 -2 -28 26 -58 62 -30 35 -75 82 -100 102
-53 45 -154 104 -163 95 -3 -4 -14 1 -23 10 -9 9 -19 14 -23 11 -3 -4 2 -12
11 -19 10 -7 14 -16 10 -20 -4 -4 -2 -6 3 -5 12 4 49 -16 79 -42 12 -11 51
-39 86 -62 69 -45 81 -61 54 -71 -44 -17 -286 148 -418 284 -54 56 -100 99
-103 96 -15 -14 77 -207 151 -319 21 -31 64 -79 97 -108 63 -54 71 -69 39 -69
-31 0 -25 -27 29 -134 86 -168 163 -269 364 -471 64 -65 109 -121 129 -160 22
-42 66 -95 148 -175 94 -94 129 -122 190 -151 73 -35 169 -71 221 -83 18 -4
31 -19 48 -55 25 -57 147 -183 228 -237 51 -34 86 -68 47 -46 -10 6 -27 7 -40
2 -12 -5 -25 -6 -28 -3 -3 4 -6 2 -6 -4 0 -6 -21 -16 -47 -23 -134 -34 -168
-44 -174 -54 -4 -5 -12 -5 -19 -1 -7 4 -23 -4 -40 -20 -15 -15 -31 -27 -34
-26 -3 1 -7 1 -8 0 -2 0 -14 -3 -27 -5 -14 -2 -32 -11 -41 -19 -9 -8 -26 -15
-38 -15 -15 0 -22 -6 -22 -19 0 -10 -6 -19 -12 -18 -38 1 -46 -4 -41 -23 4
-15 0 -20 -13 -20 -43 0 54 -59 146 -89 172 -56 313 -79 655 -106 567 -44
2402 -38 3015 10 253 20 416 38 485 55 44 10 95 22 113 25 17 4 32 11 32 16 0
5 9 9 20 9 11 0 20 4 20 9 0 5 13 14 29 21 16 6 32 19 36 28 5 14 7 15 16 2 8
-12 10 -10 6 8 -3 14 1 26 11 32 10 5 14 10 10 10 -5 0 1 9 12 20 12 12 25 18
31 14 6 -3 5 3 -2 14 -11 18 -40 32 -74 37 -5 0 -9 6 -7 13 1 7 -7 12 -18 12
-12 0 -35 7 -51 16 -17 8 -45 16 -63 18 -18 2 -38 6 -44 10 -6 4 -60 9 -119
12 -59 2 -124 7 -143 11 -19 3 -46 7 -60 8 -88 9 -130 19 -130 31 0 8 -4 14
-10 14 -5 0 -10 -4 -10 -10 0 -5 -8 -10 -17 -10 -11 0 -3 10 22 27 111 73 248
218 260 274 5 23 14 31 48 39 158 41 315 126 428 232 63 59 136 161 151 211
14 45 37 71 210 230 131 119 210 222 283 368 52 105 68 159 45 159 -18 0 -11
38 9 45 25 8 157 170 208 257 51 85 99 216 119 316 19 101 18 135 -6 157 -25
23 -26 55 -2 55 33 0 126 216 157 367 27 131 24 293 -6 293 -7 0 -9 -9 -6 -21
4 -15 -10 -37 -57 -87 -34 -37 -88 -101 -120 -142 -31 -41 -100 -122 -152
-180 -52 -58 -104 -122 -115 -142 -10 -21 -21 -38 -24 -38 -8 0 18 65 31 76 8
6 25 42 40 80 14 38 40 85 58 104 18 19 52 60 76 90 68 86 151 169 193 192 20
12 37 26 37 30 0 5 9 21 20 36 59 80 65 365 10 507 l-12 30 -15 -29 c-9 -17
-17 -52 -20 -80 -7 -91 -63 -233 -127 -321 -50 -69 -88 -139 -77 -143 9 -3 9
-7 0 -18 -6 -8 -15 -11 -20 -8 -5 3 -9 -1 -9 -8 -1 -20 -34 -55 -52 -55 -19 0
-21 -7 37 122 14 33 30 68 36 77 5 10 9 22 9 27 0 5 23 46 50 90 28 44 50 87
50 96 0 8 3 14 8 13 14 -3 42 14 37 22 -3 5 0 12 6 16 12 7 9 -23 -6 -71 -7
-20 -7 -20 6 0 12 19 39 116 39 143 0 29 -28 8 -73 -54 -60 -83 -75 -77 -18 7
23 34 41 63 39 64 -6 6 -101 -122 -147 -196 -24 -41 -53 -94 -62 -119 -12 -30
-18 -38 -19 -23 0 27 121 245 170 307 19 24 51 55 70 70 42 31 70 103 48 121
-9 7 -14 45 -15 131 -4 210 -61 386 -151 462 -42 35 -53 51 -73 114 -35 110
-130 282 -175 319 -10 8 -4 -6 14 -30 35 -49 44 -81 12 -42 -26 31 -25 17 1
-25 11 -19 17 -34 12 -34 -13 0 -43 67 -37 83 2 7 -4 21 -15 31 -11 10 -18 23
-15 28 3 4 0 7 -7 6 -8 -2 -21 27 -36 77 -16 57 -39 104 -80 163 -68 100 -83
113 -48 41 14 -30 20 -46 12 -36 -8 9 -16 17 -19 17 -3 0 8 -46 23 -102 71
-254 66 -228 45 -243 -14 -11 -17 -24 -15 -64 2 -28 1 -51 -3 -51 -4 0 -8 -10
-10 -22 -4 -23 -7 -19 -63 107 -22 51 -43 155 -51 250 -8 109 -28 215 -49 255
-9 17 -17 30 -18 30 -2 0 -2 -15 -1 -32 1 -22 0 -24 -3 -8 -6 37 -77 179 -113
228 -21 28 -36 40 -44 34 -19 -14 -36 -8 -57 18 l-20 25 15 -35 c8 -19 35 -80
60 -135 50 -109 99 -315 76 -315 -6 0 -10 7 -10 17 0 9 -3 14 -6 10 -3 -3 -17
-2 -30 3 -28 11 -28 10 -9 -37 23 -55 18 -53 -21 7 -51 81 -115 216 -133 285
-17 67 -51 248 -51 277 0 15 -5 30 -11 34 -6 3 -9 14 -6 24 3 12 -2 20 -13 23
-10 3 -29 22 -43 43 -14 22 -44 57 -68 79 l-43 40 41 -46 c54 -61 65 -84 68
-139 1 -26 6 -53 10 -60 5 -9 4 -11 -3 -6 -18 11 -44 74 -36 87 4 8 3 9 -5 5
-7 -5 -13 4 -18 24 -3 20 -9 27 -13 20 -5 -8 -12 2 -20 26 -7 22 -17 44 -22
49 -6 6 -7 4 -3 -6 4 -10 0 -16 -8 -16 -8 0 -14 7 -13 16 0 9 -5 15 -13 13 -7
-2 -23 5 -34 15 -22 19 -9 -2 58 -98 17 -24 37 -60 44 -79 8 -19 21 -42 28
-52 8 -9 15 -22 17 -30 1 -7 5 -19 9 -26 5 -7 5 -21 2 -32 -4 -14 -2 -20 6
-18 7 2 15 -5 17 -16 3 -13 0 -16 -10 -10 -8 5 -7 1 3 -12 10 -12 14 -28 9
-44 -6 -24 -8 -22 -48 35 -119 171 -166 249 -218 364 -31 69 -63 135 -70 146
-8 11 -14 27 -14 37 0 10 -7 18 -16 18 -13 0 -15 -6 -9 -27 5 -16 8 -36 9 -45
0 -9 4 -14 9 -11 5 3 6 -4 2 -17 -5 -15 -4 -20 4 -16 7 5 11 -3 11 -21 0 -22
2 -25 10 -13 7 11 10 4 10 -25 0 -23 4 -45 9 -50 13 -15 24 -68 12 -61 -5 3
-11 0 -13 -6 -3 -7 -5 1 -5 17 0 34 -45 135 -51 116 -3 -10 15 -60 36 -95 3
-5 1 -6 -4 -3 -5 3 -20 26 -33 51 -12 25 -31 51 -42 56 -23 13 -25 3 -2 -22
21 -24 9 -36 -15 -15 -23 21 -36 22 -28 2 10 -26 -11 -16 -43 20 -17 19 -34
35 -38 35 -13 1 -45 32 -108 105 -33 38 -67 77 -77 86 -9 10 -25 37 -36 62
-19 42 -98 134 -108 124 -2 -2 2 -17 10 -33 12 -21 12 -30 4 -36 -9 -5 -8 -16
5 -42 9 -20 13 -36 8 -36 -6 0 -12 9 -16 19 -3 10 -14 21 -24 24 -28 7 -15
-31 23 -69 37 -38 76 -84 71 -84 -9 0 -77 50 -120 87 -45 40 -56 65 -33 79 6
4 8 3 5 -2 -3 -6 3 -15 13 -22 17 -10 18 -9 13 6 -4 9 -17 28 -30 42 -19 18
-26 21 -32 11 -7 -11 -11 -10 -18 4 -6 10 -16 16 -24 13 -10 -3 -4 -14 20 -36
19 -17 32 -35 28 -38 -4 -4 -7 -3 -7 2 0 6 -17 20 -37 32 -53 29 -164 145
-188 195 -28 58 -45 59 -45 4 0 -27 -5 -47 -12 -50 -10 -4 -10 -6 0 -6 6 -1
12 -8 12 -18 0 -9 12 -31 26 -50 28 -36 28 -39 4 -44 -16 -3 -227 76 -247 93
-10 8 -13 7 -13 -3 0 -9 -3 -10 -8 -3 -7 10 -44 21 -149 44 -54 12 -94 11
-104 -4 -4 -4 -14 11 -22 35 -14 40 -15 41 -16 15 -2 -72 133 -233 250 -299
36 -20 72 -43 79 -52 11 -13 8 -15 -16 -15 -16 0 -45 4 -63 10 -52 15 -26 -3
79 -55 296 -146 386 -194 437 -233 32 -24 111 -75 175 -113 65 -39 121 -76
125 -82 9 -13 52 -50 97 -82 16 -11 43 -34 61 -52 18 -17 35 -30 37 -27 3 2
33 -23 69 -56 35 -33 67 -59 72 -60 4 0 7 -4 7 -9 0 -5 15 -24 33 -43 105
-110 194 -211 219 -250 10 -14 28 -37 40 -51 21 -23 138 -246 171 -327 8 -19
36 -87 62 -150 67 -162 105 -274 108 -317 1 -13 4 -23 8 -23 8 0 32 -197 26
-215 -4 -8 -2 -17 3 -20 6 -4 10 -30 10 -60 0 -30 5 -57 10 -60 6 -4 10 -18 9
-33 0 -15 6 -64 13 -109 9 -53 11 -88 5 -99 -5 -9 -11 -40 -12 -68 -5 -86 -16
-190 -22 -199 -3 -5 -7 -41 -10 -80 -5 -86 -26 -194 -55 -279 -11 -35 -20 -71
-20 -80 0 -10 -4 -18 -9 -18 -6 0 -7 -5 -4 -10 4 -6 1 -17 -5 -25 -10 -12 -21
-45 -33 -102 -2 -6 -10 -26 -19 -45 -25 -51 -58 -129 -63 -150 -2 -5 -3 -9 -5
-10 -1 -2 -3 -12 -5 -22 -2 -10 -8 -22 -13 -25 -14 -10 -52 -96 -52 -119 0
-11 -5 -24 -10 -27 -6 -3 -19 -27 -31 -51 -19 -42 -137 -217 -173 -256 -9 -10
-16 -25 -16 -33 0 -15 -27 -48 -127 -152 -35 -36 -63 -69 -63 -75 0 -5 -4 -6
-10 -3 -5 3 -10 1 -10 -4 0 -12 -102 -119 -105 -111 -1 3 -14 -10 -29 -27 -15
-18 -32 -33 -37 -33 -4 0 -21 -12 -37 -27 -39 -37 -69 -62 -117 -97 -22 -16
-49 -38 -60 -49 -11 -10 -36 -31 -55 -46 -19 -14 -41 -32 -48 -38 -7 -7 -20
-13 -28 -13 -8 0 -14 -4 -14 -8 0 -5 -18 -17 -40 -28 -22 -10 -40 -22 -40 -26
0 -5 -6 -8 -14 -8 -8 0 -21 -6 -28 -13 -7 -7 -57 -34 -110 -60 -54 -26 -100
-52 -103 -57 -3 -6 -14 -10 -24 -10 -9 0 -22 -5 -28 -11 -7 -7 -36 -21 -65
-32 -91 -33 -190 -66 -197 -65 -3 1 -13 -1 -21 -4 -8 -3 -37 -10 -65 -16 -27
-6 -88 -20 -135 -31 -47 -12 -103 -23 -125 -26 -22 -4 -53 -10 -70 -15 -45
-14 -203 -32 -265 -30 -30 1 -62 1 -70 1 -100 -1 -139 -1 -225 3 -55 3 -143
12 -195 21 -52 10 -106 18 -120 20 -14 1 -32 5 -40 8 -8 2 -35 10 -60 18 -25
7 -49 15 -55 18 -5 3 -16 7 -22 8 -7 2 -19 5 -25 6 -7 2 -31 7 -53 11 -22 4
-51 11 -65 16 -14 5 -52 16 -85 25 -33 9 -72 23 -87 31 -16 9 -28 13 -28 10 0
-7 -260 126 -297 151 -15 11 -58 34 -95 52 -38 18 -68 37 -68 42 0 6 -4 8 -9
5 -5 -3 -14 1 -21 9 -7 8 -18 15 -24 15 -11 0 -100 60 -136 92 -9 7 -29 22
-45 32 -17 11 -37 28 -46 38 -9 10 -20 18 -25 18 -5 0 -25 19 -44 42 -19 23
-42 48 -50 55 -53 48 -152 143 -148 143 3 0 -20 26 -51 58 -157 165 -180 188
-192 198 -8 6 -21 21 -29 34 -8 12 -25 34 -37 48 -23 27 -27 36 -24 60 1 6 -3
12 -8 12 -6 0 -22 23 -37 52 -14 28 -32 58 -40 66 -8 7 -14 20 -14 28 0 8 -4
14 -9 14 -9 0 -61 95 -61 111 0 6 -9 19 -19 30 -11 12 -22 36 -26 55 -3 19
-10 34 -16 34 -6 0 -8 4 -4 9 3 5 1 12 -5 16 -5 3 -10 18 -10 33 0 15 -6 36
-13 47 -7 11 -24 65 -37 120 -14 55 -28 101 -32 103 -3 2 -4 17 -1 34 3 20 1
28 -6 23 -7 -4 -11 4 -11 19 0 14 -6 53 -14 88 -8 35 -20 114 -27 176 -10 95
-14 110 -24 95 -12 -16 -14 -14 -20 21 -14 73 21 390 46 422 9 12 39 129 39
157 0 18 -2 17 -34 -2 -48 -30 -65 -26 -34 7 31 32 69 107 93 182 22 70 26 75
36 59 6 -10 9 -8 9 7 0 29 62 199 101 276 17 35 55 104 84 153 29 50 67 117
85 150 52 96 159 244 230 319 173 183 353 359 430 420 47 37 110 86 140 110
30 24 114 85 185 136 72 52 133 97 136 102 3 4 79 46 170 92 153 79 164 86
161 110 -4 28 12 36 22 11 3 -8 14 -15 24 -15 22 0 102 50 151 93 166 150 254
251 266 307 8 37 -2 57 -18 37 -15 -18 -83 -41 -97 -32 -6 4 -16 2 -23 -3 -7
-5 -25 -12 -42 -16 -16 -4 -43 -14 -60 -21 -16 -7 -74 -25 -128 -40 -110 -30
-239 -91 -295 -138 -21 -18 -11 -3 24 33 113 121 188 260 141 260 -9 0 -19 -9
-22 -20z m300 -180 c-3 -5 -11 -10 -18 -10 -6 0 -27 -11 -46 -24 -49 -33 -158
-69 -189 -61 -15 4 -31 0 -41 -8 -17 -14 -197 -67 -228 -67 -15 0 -13 4 7 20
14 11 29 20 34 20 5 0 56 18 115 39 58 22 156 49 216 62 61 12 117 26 125 30
21 12 32 11 25 -1z m1635 -19 c0 -5 -9 -7 -20 -4 -11 3 -20 7 -20 9 0 2 9 4
20 4 11 0 20 -4 20 -9z m-30 -20 c69 -18 112 -23 105 -12 -3 6 -16 12 -28 12
-17 1 -18 2 -5 6 10 2 44 -5 76 -16 32 -12 67 -21 79 -21 11 0 49 -18 84 -41
83 -53 96 -66 36 -38 -37 18 -52 21 -65 12 -14 -8 -26 -8 -48 2 -16 6 -50 15
-75 19 -45 7 -194 56 -227 75 -15 9 -13 10 8 11 14 0 41 -4 60 -9z m624 -36
c3 -8 1 -15 -3 -15 -5 0 -11 7 -15 15 -3 8 -1 15 3 15 5 0 11 -7 15 -15z
m-189 -141 c42 -9 83 -13 91 -10 8 3 14 1 14 -4 0 -6 6 -10 14 -10 47 0 201
-92 256 -154 l35 -39 -35 6 c-118 19 -321 67 -337 79 -7 5 -14 5 -17 -1 -4 -6
-30 -4 -69 5 -87 20 -94 23 -78 33 8 6 -15 15 -65 26 -44 9 -83 20 -88 22 -19
12 57 39 149 53 28 4 51 8 51 9 1 0 36 -6 79 -15z m-2310 -32 c-3 -3 -11 0
-18 7 -9 10 -8 11 6 5 10 -3 15 -9 12 -12z m2009 -42 c-10 -4 -21 -6 -24 -3
-8 7 24 22 34 16 5 -4 1 -10 -10 -13z m797 -112 c27 -22 48 -43 46 -45 -11
-10 -107 61 -107 79 0 14 11 9 61 -34z m-3236 2 c-3 -5 -18 -10 -33 -9 l-27 1
25 8 c35 11 42 11 35 0z m-345 -18 c0 -5 -25 -30 -56 -56 l-56 -49 21 41 c23
45 91 93 91 64z m257 2 c-3 -3 -12 -4 -19 -1 -8 3 -5 6 6 6 11 1 17 -2 13 -5z
m28 -24 c-4 -6 25 -10 79 -10 86 0 114 -12 54 -24 -18 -3 -62 -19 -96 -36 -35
-16 -72 -30 -82 -30 -10 0 -23 -7 -30 -15 -7 -8 -23 -15 -36 -15 -12 0 -26 -4
-29 -10 -3 -5 -25 -10 -48 -10 -23 -1 -60 -7 -82 -15 -22 -8 -54 -15 -72 -15
-17 0 -35 -5 -38 -10 -4 -7 2 -9 17 -6 12 3 45 8 72 11 27 4 56 9 65 12 11 4
13 3 6 -4 -10 -10 -100 -26 -212 -38 -52 -6 -117 -24 -110 -31 2 -3 36 2 76
11 95 20 315 21 286 2 -11 -7 -40 -20 -65 -28 l-45 -14 34 -3 34 -3 -29 -15
c-15 -8 -48 -19 -73 -25 -25 -5 -84 -25 -131 -43 -47 -19 -119 -46 -159 -60
-41 -15 -77 -30 -80 -34 -4 -4 -14 -8 -23 -10 -10 -1 -37 -11 -60 -22 -23 -10
-44 -17 -47 -15 -7 7 72 116 120 165 25 26 61 56 79 65 30 15 68 42 190 133
39 29 225 102 262 102 18 1 62 12 98 25 75 27 84 29 75 15z m3312 -41 c46 -21
87 -39 93 -39 6 0 46 -36 90 -80 44 -44 75 -80 69 -80 -6 0 -41 32 -78 70 -36
39 -71 70 -76 70 -6 -1 -1 -9 10 -18 11 -10 29 -28 39 -40 l19 -22 -48 21
c-35 16 -58 20 -89 15 -25 -4 -36 -3 -28 3 10 6 6 11 -17 19 -21 7 -33 8 -37
0 -4 -6 -27 -7 -62 -3 -41 5 -60 13 -73 30 -15 17 -27 22 -60 20 -28 -2 -37 0
-28 7 10 6 1 8 -26 4 -37 -5 -148 14 -162 28 -7 7 38 25 92 36 22 5 96 6 165
4 120 -6 129 -7 207 -45z m241 -91 c6 -16 10 -28 7 -28 -5 0 -35 56 -35 67 0
12 15 -10 28 -39z m-18 -23 c0 -5 -5 -3 -10 5 -5 8 -10 20 -10 25 0 6 5 3 10
-5 5 -8 10 -19 10 -25z m-145 -5 c8 -13 -5 -13 -25 0 -13 8 -13 10 2 10 9 0
20 -4 23 -10z m-5 -60 c180 -38 285 -86 383 -173 26 -23 37 -57 18 -57 -16 0
0 -40 20 -51 11 -5 19 -14 19 -20 0 -5 -10 -3 -22 5 -13 7 -36 17 -51 20 -19
5 -27 12 -24 21 4 9 -12 20 -48 35 -56 23 -72 25 -67 9 1 -5 -15 -2 -35 7 -21
9 -55 22 -76 30 -20 7 -66 29 -101 49 -34 19 -65 32 -68 29 -3 -3 -22 11 -41
31 -27 28 -46 38 -87 44 -28 5 -59 16 -68 25 -15 15 -10 16 68 16 47 0 128 -9
180 -20z m697 -112 c-2 -7 4 -32 14 -55 10 -24 15 -43 11 -43 -5 0 -14 16 -21
35 -6 19 -17 34 -23 32 -7 -1 -14 6 -16 15 -2 13 1 16 12 12 9 -3 16 -1 16 5
0 6 3 11 6 11 3 0 4 -6 1 -12z m-579 -159 c34 -17 90 -35 124 -40 175 -25 316
-100 365 -194 9 -16 23 -35 32 -42 9 -6 13 -14 10 -17 -9 -9 -133 43 -149 63
-8 10 -46 28 -85 41 -38 12 -95 39 -125 60 -31 20 -97 63 -148 94 -80 50 -102
66 -89 66 2 0 31 -14 65 -31z m197 13 c-3 -3 -11 0 -18 7 -9 10 -8 11 6 5 10
-3 15 -9 12 -12z m-4217 -24 c-3 -7 -73 -48 -156 -90 -83 -42 -205 -110 -271
-152 -67 -41 -121 -72 -121 -69 0 13 66 120 84 137 53 48 165 126 201 140 90
36 271 59 263 34z m4378 -274 c65 -20 151 -52 189 -72 78 -40 175 -130 224
-207 46 -73 45 -74 -38 -30 -27 14 -35 15 -41 4 -10 -15 -7 -16 -111 72 -78
66 -141 111 -202 141 -46 24 -169 128 -150 128 5 0 64 -16 129 -36z m564 3 c0
-18 -2 -19 -10 -7 -13 20 -13 43 0 35 6 -3 10 -16 10 -28z m-5222 -28 c-18
-22 -43 -55 -54 -72 -21 -32 -96 -97 -111 -97 -4 0 -19 -12 -32 -26 -25 -26
-100 -69 -107 -61 -3 3 10 17 28 32 41 35 29 30 -42 -16 -50 -33 -116 -73
-173 -106 -12 -7 -27 -20 -34 -29 -20 -28 -17 6 4 36 60 88 179 201 289 274
34 22 235 105 257 106 5 0 -6 -18 -25 -41z m-168 17 c0 -2 -7 -7 -16 -10 -8
-3 -12 -2 -9 4 6 10 25 14 25 6z m5414 -36 c3 -11 9 -29 12 -40 3 -11 1 -20
-4 -20 -6 0 -13 11 -16 24 -3 13 -9 31 -12 40 -3 9 -1 16 4 16 6 0 13 -9 16
-20z m-237 -42 c-3 -8 -6 -5 -6 6 -1 11 2 17 5 13 3 -3 4 -12 1 -19z m49 -66
c-10 -9 -35 58 -29 75 5 14 10 8 20 -26 7 -25 11 -46 9 -49z m-350 17 c19 -22
19 -22 -3 -8 -13 8 -23 17 -23 21 0 12 6 9 26 -13z m69 -87 c-7 -7 -45 29 -45
41 0 6 11 0 25 -13 14 -13 23 -26 20 -28z m556 -18 c12 -25 19 -55 16 -65 -3
-10 -2 -17 2 -15 8 6 63 -126 80 -194 17 -65 27 -365 12 -356 -6 4 -11 14 -11
22 0 8 -5 14 -11 14 -7 0 -9 -9 -5 -22 4 -13 9 -36 13 -53 5 -27 4 -29 -11
-15 -19 18 -36 117 -18 106 7 -4 12 -3 12 2 0 5 -9 12 -19 15 -13 3 -21 18
-26 48 -4 24 -21 86 -37 137 -26 83 -29 103 -24 175 3 45 7 98 8 117 2 19 0
56 -4 83 -4 26 -5 47 -2 47 3 0 14 -21 25 -46z m-429 -80 c162 -66 239 -109
265 -147 23 -33 27 -76 8 -90 -7 -6 -6 -10 3 -14 6 -2 12 -12 12 -20 0 -13 -4
-13 -27 3 -15 9 -32 21 -38 26 -68 56 -84 68 -168 123 -38 25 -72 45 -76 45
-4 0 -18 11 -31 25 -13 14 -29 25 -35 25 -14 0 -56 56 -48 64 10 10 18 8 135
-40z m233 -14 c9 -16 13 -30 11 -30 -3 0 -12 14 -21 30 -9 17 -13 30 -11 30 3
0 12 -13 21 -30z m-5337 -3 c17 -13 -13 -46 -89 -98 -31 -21 -63 -44 -71 -51
-7 -7 -26 -20 -40 -28 -102 -57 -231 -145 -252 -173 -30 -38 -33 -22 -7 36 10
23 25 61 32 85 8 29 15 38 21 30 4 -7 8 -8 8 -2 0 17 109 144 125 144 7 0 20
6 27 13 21 22 55 37 70 32 7 -3 40 4 73 14 58 18 77 18 103 -2z m-116 -225
c-18 -12 -237 -217 -308 -290 -41 -41 -74 -88 -99 -138 -40 -83 -42 -104 -4
-50 13 19 59 78 102 130 78 96 113 120 160 108 14 -4 15 -7 5 -20 -11 -13 -10
-14 10 -3 27 14 27 15 -2 -50 -21 -48 -109 -168 -128 -177 -15 -7 -124 -147
-148 -190 -14 -24 -26 -38 -29 -31 -2 7 -11 3 -23 -12 l-19 -24 7 25 c4 14 14
36 24 50 23 34 31 58 21 64 -4 3 -18 -16 -31 -42 -24 -49 -59 -103 -73 -113
-4 -3 -5 -14 -1 -25 5 -16 4 -16 -5 -4 -7 9 -11 10 -11 3 0 -6 5 -15 11 -19 8
-4 7 -9 -2 -14 -7 -5 -14 -18 -16 -30 -2 -12 -8 -30 -13 -39 -24 -41 12 134
46 223 5 14 4 17 -5 12 -7 -5 -4 8 7 30 21 43 47 142 39 150 -3 3 -8 -4 -12
-15 -3 -12 -11 -21 -16 -21 -10 0 -1 24 51 133 17 37 35 65 40 62 4 -3 11 2
14 11 3 8 2 12 -4 9 -27 -17 0 33 44 81 22 24 38 34 46 29 9 -5 11 -4 6 3 -4
7 -2 12 4 12 6 0 29 17 50 38 42 39 222 139 255 141 14 0 16 -2 7 -7z m5334
-43 c144 -93 215 -151 283 -230 75 -86 124 -176 119 -217 l-4 -27 -19 32 c-11
18 -25 33 -32 33 -7 0 -31 18 -55 40 -24 22 -50 40 -59 40 -8 0 -30 16 -49 35
-19 19 -31 35 -27 35 11 0 -23 39 -104 120 -43 41 -96 98 -119 125 -24 28 -50
53 -59 57 -10 4 -5 7 15 7 22 1 56 -15 110 -50z m638 -94 c8 -17 16 -54 19
-81 l6 -49 -20 38 c-19 37 -33 45 -43 28 -8 -13 4 -42 15 -35 9 5 10 5 15 -36
13 -114 15 -197 4 -262 -15 -91 -29 -120 -30 -60 0 28 -4 41 -12 40 -10 -2
-13 16 -13 67 0 46 -6 82 -18 104 -24 48 -23 91 3 91 22 0 23 1 14 24 -3 9
-10 13 -15 10 -5 -3 -9 11 -9 31 0 22 4 34 10 30 6 -3 10 4 11 17 0 13 3 17 6
11 2 -7 9 -13 15 -13 5 0 1 15 -9 33 -11 17 -18 42 -15 54 3 22 4 22 28 6 14
-9 31 -30 38 -48z m33 -202 c-3 -10 -5 -4 -5 12 0 17 2 24 5 18 2 -7 2 -21 0
-30z m-585 -145 c11 -26 38 -64 59 -83 22 -19 39 -40 39 -46 0 -6 6 -9 13 -6
20 8 58 -27 142 -133 71 -88 127 -179 123 -197 0 -5 4 -21 10 -36 15 -36 15
-37 -5 -37 -13 0 -15 3 -5 8 9 7 8 14 -8 32 -11 13 -20 30 -21 39 0 9 -5 3
-11 -14 -10 -29 -17 -112 -19 -219 0 -47 -1 -48 -16 -27 -8 12 -16 28 -17 34
-2 7 -6 20 -11 30 -4 10 -5 21 -2 24 9 9 -13 44 -23 38 -6 -3 -7 1 -4 9 3 8 0
24 -6 36 -17 31 -4 37 19 9 29 -34 26 -9 -4 35 -14 21 -21 35 -16 31 6 -3 -10
34 -33 82 -45 91 -119 204 -155 237 -12 11 -21 31 -21 47 0 32 -19 79 -32 79
-4 0 -8 -4 -8 -10 0 -5 -7 -10 -16 -10 -11 0 -15 8 -13 28 1 15 -1 34 -4 42
-9 22 -27 93 -27 105 0 14 47 -69 72 -127z m58 111 c0 -13 78 -98 84 -92 3 4
6 -1 6 -10 0 -9 6 -16 13 -14 6 1 11 -6 10 -16 0 -11 4 -16 12 -13 13 4 15
-17 3 -29 -6 -7 -113 110 -140 154 -15 23 -16 28 -3 28 8 0 15 -4 15 -8z m415
-232 c-1 -92 -6 -171 -9 -174 -3 -4 -6 1 -6 10 0 11 -5 14 -16 10 -14 -5 -16
-1 -12 20 3 15 1 24 -3 21 -5 -3 -9 2 -9 11 0 9 -4 14 -9 10 -15 -9 -25 106
-14 160 6 28 23 77 38 110 l28 60 8 -35 c4 -19 6 -111 4 -203z m122 181 c-3
-7 -5 -2 -5 12 0 14 2 19 5 13 2 -7 2 -19 0 -25z m-6295 -275 c-8 -27 -20 -54
-26 -62 -6 -8 -10 -22 -8 -31 4 -23 -54 -170 -79 -199 -17 -20 -22 -22 -29
-11 -5 8 -11 12 -13 10 -15 -18 -37 -78 -37 -101 0 -15 -11 -41 -25 -57 -14
-17 -25 -39 -25 -51 0 -12 -4 -29 -9 -39 -5 -9 -14 -28 -19 -42 l-11 -25 0 25
c-1 14 3 40 8 58 5 17 6 32 1 32 -5 0 -11 -14 -15 -31 -4 -17 -9 -29 -11 -26
-10 10 -11 74 -1 92 5 11 14 33 18 50 24 93 58 160 127 255 63 87 158 200 167
200 1 0 -5 -21 -13 -47z m-418 -312 c-2 -2 5 -16 16 -31 25 -35 25 -62 1 -77
-17 -10 -24 -8 -53 20 -18 18 -34 39 -36 47 -2 8 -7 16 -12 18 -5 2 -7 9 -4
16 3 7 -2 19 -11 26 -8 7 -15 24 -15 37 0 18 -4 24 -14 20 -20 -8 -29 39 -20
98 4 30 11 45 19 42 8 -4 11 4 8 21 -1 15 26 -31 61 -103 35 -71 62 -132 60
-134z m6305 41 c29 -58 43 -105 30 -97 -5 4 -9 13 -9 21 0 8 -4 13 -9 10 -5
-4 -12 0 -15 6 -3 7 -3 -2 0 -21 4 -22 3 -31 -5 -27 -12 8 -33 77 -26 85 3 2
5 -1 5 -8 0 -7 5 -9 10 -6 7 4 6 14 -2 28 -7 12 -11 26 -10 31 2 4 -3 14 -9
22 -9 12 -9 13 3 9 8 -3 25 -27 37 -53z m-5955 -129 c-14 -37 -6 -32 22 14 48
77 -12 -118 -103 -337 -41 -98 -59 -156 -69 -223 -9 -63 -18 -52 -15 19 1 30
-6 85 -15 121 -19 75 -15 104 25 182 28 55 159 261 166 261 2 0 -3 -17 -11
-37z m5866 -60 c0 -4 11 -30 25 -57 14 -27 25 -59 25 -70 0 -12 7 -43 15 -69
8 -26 14 -77 14 -112 -1 -46 4 -69 15 -81 9 -8 16 -25 16 -38 0 -46 -32 -261
-40 -271 -5 -5 -10 -26 -13 -45 -3 -31 -4 -29 -5 11 -1 26 -8 64 -16 85 -7 22
-17 93 -21 159 -4 66 -18 170 -31 232 -13 61 -27 158 -30 215 l-6 103 26 -27
c14 -15 26 -31 26 -35z m50 -5 c10 -18 17 -34 14 -37 -6 -7 -54 45 -54 59 0
20 21 9 40 -22z m43 -181 c3 -20 10 -43 16 -51 6 -7 8 -16 4 -19 -11 -12 -19
-8 -20 11 -1 9 -6 33 -11 52 -26 88 -26 87 -9 65 8 -11 17 -37 20 -58z m-5903
-182 c-10 -22 -21 -67 -24 -100 -4 -33 -9 -80 -13 -105 -4 -31 -2 -42 5 -35 6
6 20 65 31 133 22 137 46 199 37 97 -3 -33 -9 -95 -12 -137 -4 -43 -10 -76
-14 -73 -4 2 -5 -7 -2 -20 2 -14 0 -31 -5 -38 -11 -13 -26 -82 -43 -197 -7
-41 -14 -90 -17 -107 -3 -18 -9 -33 -14 -33 -11 0 -39 95 -39 131 0 19 -7 32
-21 40 -21 11 -21 16 -16 97 4 48 11 89 18 93 7 4 9 16 6 28 -3 12 -2 19 2 16
8 -4 31 82 31 116 0 17 35 111 76 204 l18 40 7 -55 c6 -43 3 -63 -11 -95z
m6340 -94 c0 -14 -71 -96 -117 -134 -23 -19 -79 -71 -125 -115 -45 -45 -84
-79 -86 -78 -4 5 39 77 59 99 10 11 35 41 56 67 21 27 56 60 78 74 22 14 52
37 67 51 15 14 32 25 38 25 5 0 10 5 10 10 0 6 5 10 10 10 6 0 10 -4 10 -9z
m-6560 -242 c0 -7 -9 0 -20 14 -11 14 -20 28 -20 31 0 3 9 -3 20 -14 11 -11
20 -25 20 -31z m5930 36 c8 -10 10 -34 5 -82 -8 -74 -12 -105 -15 -113 -1 -3
-2 -8 -1 -12 4 -30 -25 -164 -54 -248 -19 -56 -34 -105 -33 -108 4 -16 -13
-48 -32 -60 -17 -10 -21 -10 -26 3 -7 17 16 189 24 181 3 -3 23 38 45 92 21
53 43 100 49 103 5 3 -2 13 -16 23 -17 11 -26 12 -26 5 0 -7 -2 -10 -5 -8 -7
8 7 49 15 44 12 -7 34 101 32 153 -1 44 14 56 38 27z m-5550 -285 c5 -85 12
-194 16 -242 5 -62 4 -88 -4 -88 -6 0 -16 8 -21 18 -8 14 -10 10 -11 -20 0
-66 -19 -47 -60 60 -23 62 -26 162 -5 207 l13 30 1 -27 c1 -16 5 -28 10 -28 5
0 12 -10 14 -22 3 -19 5 -18 6 6 1 34 -19 106 -30 106 -4 0 -10 -6 -12 -12 -4
-10 -6 -10 -6 -1 -1 6 3 14 9 18 5 3 6 13 3 21 -7 19 17 124 29 124 4 0 8 11
8 23 0 13 3 27 7 31 14 13 23 -48 33 -204z m6090 56 c-41 -57 -107 -106 -392
-295 -87 -56 -108 -67 -108 -52 0 28 145 145 255 206 60 33 138 89 182 130 18
16 38 35 45 42 7 7 21 12 31 13 16 0 14 -7 -13 -44z m-6306 -111 c3 -8 1 -15
-4 -15 -6 0 -10 7 -10 15 0 8 2 15 4 15 2 0 6 -7 10 -15z m5737 -106 c-5 -13
-10 -19 -10 -12 -1 15 10 45 15 40 3 -2 0 -15 -5 -28z m-185 -149 c-4 -19 -9
-46 -11 -60 -19 -110 -24 -110 -19 -1 2 63 8 126 11 140 6 25 7 25 16 -9 5
-19 6 -51 3 -70z m-53 37 c-7 -12 -10 -38 -17 -177 -5 -97 -25 -160 -65 -210
-15 -19 -36 -51 -46 -70 -27 -53 -76 -122 -82 -116 -3 3 1 25 10 48 15 40 27
92 62 268 21 102 113 289 136 274 5 -3 6 -11 2 -17z m212 -17 c-4 -17 -9 -29
-12 -26 -3 2 -2 19 2 36 4 17 9 29 12 26 3 -2 2 -19 -2 -36z m-5283 -30 c4 0
8 -5 8 -11 0 -6 16 -44 36 -85 45 -95 103 -373 84 -405 -12 -18 -45 34 -64 98
-9 32 -24 74 -32 93 -30 67 -47 126 -51 170 -1 25 -5 77 -8 115 -4 57 -3 66 6
48 7 -13 16 -23 21 -23z m5602 31 c3 -5 -1 -11 -9 -15 -8 -3 -15 -12 -15 -20
0 -15 -38 -42 -52 -38 -5 1 -8 -4 -8 -12 0 -10 -20 -19 -57 -26 -32 -7 -67
-20 -78 -30 -11 -10 -31 -23 -43 -30 -20 -10 -23 -9 -15 2 18 29 120 115 156
132 106 49 113 51 121 37z m-5834 -126 c0 -5 -5 -3 -10 5 -5 8 -10 20 -10 25
0 6 5 3 10 -5 5 -8 10 -19 10 -25z m0 -168 c0 -6 -9 -2 -20 8 -11 10 -20 23
-20 28 0 6 9 2 20 -8 11 -10 20 -23 20 -28z m-170 -107 c10 -13 86 -29 113
-23 18 4 32 0 40 -9 7 -8 35 -24 64 -36 75 -30 157 -89 269 -193 107 -98 134
-133 63 -80 -24 18 -79 56 -121 84 -43 28 -78 55 -78 60 0 26 -94 72 -258 128
-106 35 -152 60 -152 81 0 9 52 -1 60 -12z m5937 -3 c-50 -32 -53 -36 -37 -47
13 -8 9 -15 -20 -43 -19 -18 -55 -56 -79 -85 -26 -30 -50 -51 -58 -48 -7 3
-13 0 -13 -8 0 -7 -6 -13 -12 -13 -7 0 -26 -4 -43 -8 l-30 -8 28 24 c27 24 28
24 7 37 -17 10 -23 9 -38 -9 -9 -11 -35 -29 -57 -40 -23 -11 -54 -32 -71 -47
-32 -29 -86 -52 -123 -52 -12 0 -19 4 -16 10 9 14 -19 12 -34 -2 -11 -11 -13
-10 -9 2 6 19 93 50 142 50 31 0 45 7 70 33 34 35 138 91 158 85 6 -2 21 5 33
17 11 12 45 32 75 45 30 13 62 30 70 37 12 11 9 13 -20 13 -32 0 -33 1 -14 16
18 15 18 15 -6 9 -49 -12 -160 -17 -160 -8 0 11 4 12 98 19 40 3 87 11 105 19
17 8 41 14 52 14 19 0 19 -1 2 -12z m-5257 -72 c8 5 18 -6 113 -125 83 -104
191 -305 207 -382 9 -44 2 -47 -30 -13 -12 13 -26 23 -29 22 -4 -1 -17 8 -31
21 -13 12 -27 22 -30 22 -4 0 -13 12 -21 28 -8 15 -16 29 -19 32 -14 13 -70
132 -70 148 0 10 -5 23 -10 28 -6 6 -34 58 -63 116 -36 72 -49 108 -42 115 7
7 11 6 13 -3 2 -8 7 -12 12 -9z m4950 0 c0 -8 -4 -15 -10 -15 -5 0 -7 7 -4 15
4 8 8 15 10 15 2 0 4 -7 4 -15z m177 9 c-3 -3 -12 -4 -19 -1 -8 3 -5 6 6 6 11
1 17 -2 13 -5z m-696 -105 c-12 -10 -21 -25 -21 -36 0 -10 -9 -29 -20 -43 -11
-14 -20 -29 -20 -33 0 -5 -13 -27 -28 -50 -16 -23 -36 -59 -45 -79 -10 -20
-24 -43 -31 -50 -8 -7 -39 -37 -70 -67 -31 -30 -56 -49 -56 -41 0 26 91 169
123 193 19 14 49 57 71 98 20 41 54 100 74 131 l37 58 3 -32 c3 -24 -2 -37
-17 -49z m489 70 c0 -6 9 -8 20 -4 33 10 23 -2 -22 -28 -24 -13 -70 -40 -103
-59 -33 -18 -69 -37 -79 -41 -20 -8 -20 -8 0 15 32 37 68 67 81 68 6 0 13 4
15 9 3 10 69 51 81 51 4 0 7 -5 7 -11z m-5475 -98 c22 -5 63 -15 90 -22 57
-14 133 -46 155 -64 8 -7 44 -25 80 -41 36 -15 88 -43 116 -61 29 -17 54 -29
58 -26 7 7 46 -26 46 -38 0 -5 -8 -5 -17 -2 -16 6 -16 5 -4 -10 20 -26 2 -20
-38 11 -19 15 -57 36 -83 48 -27 11 -46 23 -43 26 14 14 -141 68 -196 68 -30
0 -135 32 -173 52 -23 13 -118 98 -130 117 -3 5 18 -4 47 -19 28 -16 70 -33
92 -39z m625 -152 c0 -6 -4 -7 -10 -4 -5 3 -10 11 -10 16 0 6 5 7 10 4 6 -3
10 -11 10 -16z m4570 -3 c0 -2 -7 -7 -16 -10 -8 -3 -12 -2 -9 4 6 10 25 14 25
6z m56 -25 c-7 -11 -66 -32 -66 -24 0 3 8 12 18 19 19 15 56 19 48 5z m-4168
-165 c40 -27 75 -53 78 -57 3 -5 14 -9 24 -9 11 0 24 -8 29 -18 5 -10 32 -41
60 -69 63 -64 72 -116 11 -63 -13 11 -29 20 -36 20 -7 0 -17 6 -21 13 -10 15
-61 42 -68 36 -2 -3 2 -18 10 -33 17 -31 20 -60 5 -36 -5 8 -10 11 -10 6 0 -5
-6 -3 -13 3 -8 6 -18 7 -22 3 -5 -4 -5 1 -2 10 3 10 2 20 -3 23 -4 3 -10 0
-12 -6 -2 -5 -13 10 -25 35 -17 34 -19 44 -8 39 27 -10 16 14 -28 60 -41 43
-117 148 -117 162 0 4 17 -11 38 -32 21 -21 70 -60 110 -87z m4072 120 c0 -2
-8 -10 -17 -17 -16 -13 -17 -12 -4 4 13 16 21 21 21 13z m-599 -60 c-9 -10 -9
-15 -1 -18 7 -2 0 -16 -15 -32 -18 -19 -23 -31 -15 -36 20 -12 -9 -58 -41 -65
-16 -4 -29 -11 -29 -15 0 -5 -7 -7 -15 -4 -8 4 -15 10 -15 16 0 5 5 6 10 3 6
-3 10 -1 10 5 0 22 109 174 118 165 3 -2 0 -11 -7 -19z m-222 -150 c-25 -23
-144 -106 -152 -106 -17 0 129 108 147 109 5 1 7 -1 5 -3z m-3825 -58 c56 4
157 -19 186 -44 8 -7 53 -20 99 -28 83 -16 193 -66 291 -132 49 -34 28 -30
-117 22 -132 47 -277 85 -398 104 -69 11 -213 54 -227 69 -5 4 17 7 47 6 30 0
55 4 56 10 0 6 2 6 5 -1 3 -6 25 -9 58 -6z m4692 0 c-11 -6 -33 -14 -50 -19
-17 -4 -42 -11 -55 -15 -19 -6 -22 -4 -19 12 2 15 15 20 58 25 88 9 87 9 66
-3z m83 -13 c-14 -7 -54 -16 -90 -19 l-64 -5 50 10 c28 6 54 14 60 20 5 5 23
9 40 9 l30 -1 -26 -14z m-4069 -60 c11 -13 10 -14 -4 -9 -9 3 -16 10 -16 15 0
13 6 11 20 -6z m186 -52 c-6 -7 -56 27 -56 39 0 5 14 0 31 -12 16 -12 28 -24
25 -27z m3462 42 c-3 -3 -40 -14 -84 -26 -94 -24 -225 -69 -238 -81 -19 -16
-29 -7 -12 11 22 24 143 74 158 65 7 -5 8 -2 3 6 -5 9 -2 10 12 6 11 -4 35 0
54 8 31 14 119 23 107 11z m-3588 -30 c7 -9 10 -18 7 -21 -9 -10 -39 5 -33 15
4 5 0 12 -6 14 -9 4 -7 6 3 6 9 1 22 -6 29 -14z m-587 -2 c-7 -2 -19 -2 -25 0
-7 3 -2 5 12 5 14 0 19 -2 13 -5z m44 -9 c-3 -3 -12 -4 -19 -1 -8 3 -5 6 6 6
11 1 17 -2 13 -5z m604 -28 c7 4 10 3 6 -3 -4 -6 0 -19 8 -29 9 -11 14 -14 15
-6 0 16 42 -5 85 -43 29 -26 29 -27 5 -19 -14 4 -34 7 -44 6 -24 -1 -82 46
-78 64 1 7 -7 15 -18 19 -11 3 -20 14 -20 23 1 15 2 15 15 -2 8 -10 19 -15 26
-10z m2934 -15 c-3 -6 -11 -11 -17 -11 -6 0 -6 6 2 15 14 17 26 13 15 -4z
m710 9 c-3 -5 -12 -10 -20 -10 -7 0 -21 -7 -29 -16 -24 -23 -151 -51 -263 -58
-85 -5 -93 -4 -63 7 19 7 41 16 48 20 7 5 26 9 42 9 16 1 27 4 25 9 -3 4 25
11 62 14 38 4 93 13 123 20 69 17 83 18 75 5z m-4125 -66 c142 -46 169 -58
157 -70 -14 -14 -229 55 -352 112 -61 28 54 4 195 -42z m835 6 c3 -6 -1 -7 -9
-4 -18 7 -21 14 -7 14 6 0 13 -4 16 -10z m160 -66 c17 -9 39 -17 50 -19 11 -1
24 -3 28 -4 5 0 5 -6 1 -13 -4 -7 -3 -8 4 -4 7 4 20 2 29 -3 10 -6 14 -11 9
-11 -6 0 45 -27 112 -61 67 -34 136 -74 153 -90 16 -15 47 -34 67 -41 20 -6
42 -16 47 -21 6 -5 3 -5 -8 -1 -13 5 -16 2 -11 -10 3 -9 10 -16 15 -16 5 0 9
-5 9 -11 0 -6 -12 -1 -28 9 -15 11 -51 28 -80 37 -28 10 -52 21 -52 25 0 4
-11 11 -25 14 -14 4 -25 11 -25 16 0 6 -6 10 -12 10 -7 0 -41 25 -75 56 -35
31 -63 53 -63 50 0 -5 -188 88 -198 99 -12 11 25 4 53 -11z m1850 -17 c-21
-15 -65 -28 -65 -21 0 6 61 33 75 34 5 0 1 -6 -10 -13z m-88 -62 c-4 -8 -14
-15 -24 -14 -16 0 -16 1 2 9 13 6 15 9 5 9 -13 1 -13 2 0 11 18 11 24 6 17
-15z m-2237 -40 c163 -5 195 -12 325 -70 70 -31 87 -44 79 -57 -3 -5 -12 -4
-20 3 -9 7 -60 15 -117 18 -56 4 -111 11 -122 18 -11 6 -38 11 -60 12 -22 0
-67 6 -100 12 -85 15 -90 15 -355 -8 -89 -8 -111 -6 -129 12 -11 11 -10 14 8
20 11 3 21 10 21 15 0 18 136 38 240 33 41 -1 145 -5 230 -8z m3083 1 c40 -8
83 -17 97 -19 26 -4 -119 -11 -155 -7 -11 1 -21 6 -23 11 -2 5 -38 9 -79 9
-61 0 -74 -3 -70 -14 4 -11 -12 -18 -66 -30 -148 -31 -161 -32 -190 -18 -21
11 -32 11 -40 3 -14 -14 -64 -15 -72 -1 -3 6 6 15 21 20 27 11 217 36 354 47
41 3 77 7 79 9 9 8 75 3 144 -10z m157 -26 c0 -5 -7 -10 -16 -10 -8 0 -12 5
-9 10 3 6 10 10 16 10 5 0 9 -4 9 -10z m40 -10 c0 -5 -7 -7 -15 -4 -8 4 -15 8
-15 10 0 2 7 4 15 4 8 0 15 -4 15 -10z m-1256 -24 c-11 -8 -34 -17 -50 -21
-25 -4 -23 -2 11 14 48 23 67 27 39 7z m1123 -2 c-3 -3 -12 -4 -19 -1 -8 3 -5
6 6 6 11 1 17 -2 13 -5z m113 -19 c-7 -8 -22 -15 -34 -14 -18 0 -16 3 9 14 39
18 40 18 25 0z m-3263 -22 c0 -11 -8 -13 -30 -9 -16 3 -44 6 -61 7 -30 1 -30
1 -6 9 41 13 97 9 97 -7z m1703 -80 c-36 -37 -70 -71 -76 -75 -7 -4 -15 -19
-18 -33 -4 -14 -11 -25 -16 -25 -6 0 -10 -11 -10 -25 0 -29 0 -29 -33 -12 -23
12 -24 15 -11 38 7 13 13 29 13 34 0 6 -7 -3 -15 -18 -17 -32 -30 -30 -19 2 7
24 71 71 95 71 9 0 31 15 50 33 36 33 92 76 100 77 2 0 -25 -30 -60 -67z
m-1743 -19 c-3 -3 -12 -4 -19 -1 -8 3 -5 6 6 6 11 1 17 -2 13 -5z m563 -78
c28 -9 39 -16 30 -20 -24 -8 -289 -87 -348 -102 -93 -25 -109 -15 -29 18 23 9
37 17 31 17 -6 1 -11 8 -11 16 0 15 10 19 35 16 6 -1 12 2 12 7 0 6 7 13 16
16 8 3 12 2 9 -4 -9 -15 1 -12 47 11 34 17 40 18 35 5 -8 -20 7 -21 26 -2 7 8
34 19 58 24 24 5 44 10 44 11 0 0 20 -6 45 -13z m679 -49 c17 -56 10 -81 -21
-71 -13 3 -23 7 -24 8 -1 0 -4 29 -7 63 -6 61 -6 62 16 54 14 -5 26 -24 36
-54z m1121 38 c41 -13 84 -25 96 -25 11 0 24 -4 30 -8 5 -5 55 -23 112 -42 56
-18 102 -37 102 -41 0 -4 -15 -3 -32 3 -18 5 -51 14 -73 19 -67 16 -329 101
-339 110 -18 17 29 9 104 -16z m-884 -53 c5 -4 16 -22 24 -40 10 -27 10 -35 0
-45 -10 -9 -14 -9 -17 1 -3 8 -9 10 -16 3 -7 -5 -35 -11 -64 -12 -47 -4 -52
-2 -56 19 -3 14 1 26 9 29 8 3 12 9 9 13 -14 22 84 51 111 32z m632 -6 c35 -8
66 -17 70 -21 4 -4 -11 -3 -33 2 -22 4 -127 7 -233 6 -107 -1 -192 1 -189 3
22 22 296 29 385 10z m-1182 -13 l79 -6 -53 -13 c-33 -7 -77 -9 -113 -5 -32 4
-72 7 -89 6 -16 -1 -30 2 -30 6 0 16 94 22 206 12z m674 -13 c8 -5 11 -12 8
-16 -10 -9 -38 3 -38 16 0 12 10 13 30 0z m-1110 -30 c-8 -5 -28 -9 -45 -9
-30 2 -30 2 5 9 51 11 57 11 40 0z m47 4 c-3 -3 -12 -4 -19 -1 -8 3 -5 6 6 6
11 1 17 -2 13 -5z m995 -138 c4 -22 3 -23 -18 -14 -13 6 -20 16 -17 24 8 22
30 16 35 -10z m-222 4 c0 -5 -2 -10 -4 -10 -3 0 -8 5 -11 10 -3 6 -1 10 4 10
6 0 11 -4 11 -10z"/>
<path d="M6188 7983 c7 -3 16 -2 19 1 4 3 -2 6 -13 5 -11 0 -14 -3 -6 -6z"/>
<path d="M3015 7530 c-19 -8 -19 -9 2 -9 12 -1 25 4 28 9 7 12 -2 12 -30 0z"/>
<path d="M7008 7503 c7 -3 16 -2 19 1 4 3 -2 6 -13 5 -11 0 -14 -3 -6 -6z"/>
<path d="M7418 7123 c7 -3 16 -2 19 1 4 3 -2 6 -13 5 -11 0 -14 -3 -6 -6z"/>
<path d="M2494 6929 c-19 -22 -19 -22 3 -10 24 12 39 31 25 31 -5 0 -17 -10
-28 -21z"/>
<path d="M2440 6894 l-25 -15 25 7 c28 7 35 12 29 18 -2 2 -15 -2 -29 -10z"/>
<path d="M2190 6659 c0 -5 5 -7 10 -4 6 3 10 8 10 11 0 2 -4 4 -10 4 -5 0 -10
-5 -10 -11z"/>
<path d="M1896 6095 c-9 -26 -7 -32 5 -12 6 10 9 21 6 23 -2 3 -7 -2 -11 -11z"/>
<path d="M8308 6168 c-3 -46 -6 -74 -13 -105 -7 -32 8 -49 17 -20 7 19 10 147
4 147 -3 0 -7 -10 -8 -22z"/>
<path d="M7930 5074 c0 -8 5 -12 10 -9 6 3 10 10 10 16 0 5 -4 9 -10 9 -5 0
-10 -7 -10 -16z"/>
<path d="M2161 4485 c0 -5 6 -19 14 -29 8 -11 15 -15 15 -10 0 6 -7 19 -15 30
-8 10 -14 15 -14 9z"/>
<path d="M2150 4271 c0 -6 4 -13 10 -16 6 -3 7 1 4 9 -7 18 -14 21 -14 7z"/>
<path d="M8276 4465 c-11 -8 -17 -17 -14 -20 2 -3 13 4 23 15 21 23 18 25 -9
5z"/>
<path d="M7465 4000 c4 -6 11 -8 16 -5 14 9 11 15 -7 15 -8 0 -12 -5 -9 -10z"/>
<path d="M2522 3715 c0 -16 2 -22 5 -12 2 9 2 23 0 30 -3 6 -5 -1 -5 -18z"/>
<path d="M7810 3569 c-17 -13 -18 -17 -5 -10 33 17 51 31 40 31 -5 0 -21 -10
-35 -21z"/>
<path d="M3285 3060 c3 -5 8 -10 11 -10 2 0 4 5 4 10 0 6 -5 10 -11 10 -5 0
-7 -4 -4 -10z"/>
<path d="M6906 2821 c-3 -4 6 -6 19 -3 14 2 25 6 25 8 0 8 -39 4 -44 -5z"/>
<path d="M6203 2573 c9 -2 23 -2 30 0 6 3 -1 5 -18 5 -16 0 -22 -2 -12 -5z"/>
<path d="M3835 2290 c-3 -6 1 -7 9 -4 18 7 21 14 7 14 -6 0 -13 -4 -16 -10z"/>
<path d="M6688 8120 c35 -34 67 -59 70 -55 7 7 -52 62 -103 97 -16 11 -2 -8
33 -42z"/>
<path d="M3042 7898 c-18 -11 -31 -22 -29 -25 6 -5 67 30 67 40 0 9 2 9 -38
-15z"/>
<path d="M2337 7291 c-4 -17 -3 -21 5 -13 5 5 8 16 6 23 -3 8 -7 3 -11 -10z"/>
<path d="M4469 7203 c-1 -5 -2 -138 -3 -298 l-1 -290 -377 -3 c-326 -2 -378
-4 -378 -17 0 -8 37 -89 83 -181 l82 -166 220 4 220 3 0 -835 0 -835 -160 0
-160 0 -77 -155 c-42 -85 -77 -161 -77 -167 -1 -10 71 -13 312 -15 l312 -3 1
-175 c0 -96 1 -221 2 -277 l2 -103 175 0 175 0 0 275 0 275 100 0 100 0 0
-275 0 -275 165 0 165 0 0 163 c1 142 9 389 14 394 1 1 44 9 96 17 129 21 198
40 294 81 238 103 396 279 441 492 39 183 -3 358 -114 485 -50 57 -165 135
-245 168 l-58 23 23 18 c13 10 28 19 33 19 17 0 115 91 152 141 121 166 122
421 2 605 -114 174 -351 299 -598 316 l-35 3 4 126 c2 70 0 203 -4 298 l-7
171 -166 0 -165 0 4 -297 4 -298 -102 -3 -103 -3 0 278 c0 153 -3 288 -6 301
-6 22 -9 22 -175 22 -93 0 -170 -3 -170 -7z m776 -968 c84 -24 128 -48 169
-97 44 -51 66 -120 66 -208 0 -128 -75 -230 -208 -281 -50 -19 -83 -22 -254
-27 l-198 -5 0 323 0 323 183 -6 c120 -4 202 -12 242 -22z m39 -970 c142 -30
246 -99 290 -194 31 -67 29 -188 -3 -255 -48 -97 -141 -163 -293 -207 -59 -17
-111 -22 -272 -26 l-199 -6 6 48 c4 26 7 187 7 358 l0 310 198 -7 c108 -4 228
-13 266 -21z"/>
<path d="M2142 5490 c0 -14 2 -19 5 -12 2 6 2 18 0 25 -3 6 -5 1 -5 -13z"/>
<path d="M1772 4190 c7 -11 17 -20 22 -20 5 0 1 9 -9 20 -10 11 -20 20 -22 20
-2 0 2 -9 9 -20z"/>
</g>
</svg>
